<svg width="468" height="353" viewBox="0 0 468 353" fill="none" xmlns="http://www.w3.org/2000/svg">
<path d="M233.149 7.58988L234.779 199.818" stroke="#FFBD00" stroke-width="4.14133" stroke-miterlimit="10"/>
<path d="M234.929 201.328L147 159.364L233.097 5.00012L320.112 159.364L234.929 201.328Z" stroke="#FFBD00" stroke-width="4.14133" stroke-miterlimit="10"/>
<path d="M234.929 201.328L177.744 158.92L233.239 34.5655L289.132 157.747L234.929 201.328Z" stroke="#FFBD00" stroke-width="4.14133" stroke-miterlimit="10"/>
<path d="M148.333 157.667H317.666" stroke="#FFBD00" stroke-width="4" stroke-miterlimit="10"/>
<path d="M234.804 131.613L210.616 143.159L234.3 185.623L258.238 143.159L234.804 131.613Z" stroke="#FFBD00" stroke-width="4.14133" stroke-miterlimit="10"/>
<path d="M212.333 144.333H255" stroke="#FFBD00" stroke-width="4" stroke-miterlimit="10"/>
<path d="M8.71875 293.812C7.96875 293.812 7.1875 293.656 6.375 293.344C5.34375 292.969 4.39062 292.062 3.51562 290.625C2.64062 289.188 1.98438 287.469 1.54688 285.469C0.953125 282.25 0.65625 277.641 0.65625 271.641C0.65625 267.047 0.8125 262.141 1.125 256.922C1.46875 251.672 1.95312 246.812 2.57812 242.344C3.07812 238.969 3.71875 235.734 4.5 232.641C5.65625 227.891 6.85938 224.625 8.10938 222.844C8.60938 222.125 8.96875 221.766 9.1875 221.766C9.40625 221.766 10.0156 221.344 11.0156 220.5C12.3594 219.406 13.8281 218.578 15.4219 218.016C17.0156 217.422 18.5625 217.125 20.0625 217.125C21.6562 217.125 23.125 217.469 24.4688 218.156C25.2812 218.625 26.0781 219.359 26.8594 220.359C27.6719 221.328 28.3281 222.359 28.8281 223.453C29.3594 224.641 29.8438 225.609 30.2812 226.359C30.8438 227.297 31.3438 228.516 31.7812 230.016C32.5 232.391 32.8594 234.766 32.8594 237.141C32.8594 240.641 32.3281 244.438 31.2656 248.531C30.2344 252.625 28.8594 256.203 27.1406 259.266C25.3906 262.234 23.3906 264.766 21.1406 266.859C18.8906 268.953 17.0312 270 15.5625 270C14.9375 270 14.3438 269.797 13.7812 269.391C13.25 268.984 12.8906 268.469 12.7031 267.844L12.5625 267.328C12.5312 267.328 12.5 267.641 12.4688 268.266C12.4688 269.609 12.8438 274.234 13.5938 282.141L13.9219 285.562C14.0781 287.688 14.2812 288.781 14.5312 288.844C15.375 289.469 15.7969 290.109 15.7969 290.766C15.7969 291.234 15.5938 291.703 15.1875 292.172C14.9688 292.422 14.7188 292.594 14.4375 292.688C14.1562 292.781 13.7031 292.828 13.0781 292.828C12.1406 292.828 11.3906 292.984 10.8281 293.297C10.2656 293.641 9.5625 293.812 8.71875 293.812ZM8.8125 290.203C8.84375 290.203 8.85938 290.156 8.85938 290.062C8.85938 289.812 8.67188 289.25 8.29688 288.375C7.82812 287.188 7.54688 286.594 7.45312 286.594V286.641C7.45312 286.828 7.51562 287.141 7.64062 287.578C8.07812 289.328 8.46875 290.203 8.8125 290.203ZM7.3125 289.734L7.35938 289.641C7.35938 289.516 7.29688 289.328 7.17188 289.078C7.04688 288.859 6.96875 288.75 6.9375 288.75V288.844C6.9375 288.938 6.96875 289.109 7.03125 289.359C7.125 289.609 7.20312 289.734 7.26562 289.734H7.3125ZM10.1719 289.734C10.2031 289.734 10.2188 289.703 10.2188 289.641C10.2188 289.422 10.0312 288.75 9.65625 287.625C9.25 286.25 9 285.562 8.90625 285.562C8.875 285.562 8.85938 285.641 8.85938 285.797C8.85938 286.047 8.92188 286.469 9.04688 287.062C9.20312 287.625 9.39062 288.156 9.60938 288.656C9.92188 289.375 10.1094 289.734 10.1719 289.734ZM8.71875 285.281C8.75 285.281 8.76562 285.266 8.76562 285.234C8.79688 285.172 8.8125 285.094 8.8125 285C8.8125 284.719 8.76562 284.578 8.67188 284.578C8.64062 284.578 8.625 284.672 8.625 284.859C8.625 285.141 8.65625 285.281 8.71875 285.281ZM7.35938 265.734C7.45312 265.734 7.54688 263.422 7.64062 258.797C7.76562 253.047 7.875 248.938 7.96875 246.469L8.01562 244.219C8.01562 243.781 8 243.562 7.96875 243.562C7.875 243.562 7.73438 245.297 7.54688 248.766C7.29688 253.797 7.17188 257.922 7.17188 261.141C7.20312 264.203 7.26562 265.734 7.35938 265.734ZM17.9531 263.766C18.1094 263.766 18.7969 263.047 20.0156 261.609C21.2344 260.172 22.0781 259.031 22.5469 258.188C22.8906 257.656 23.0625 257.359 23.0625 257.297L23.0156 257.25C22.9531 257.25 21.9219 258.5 19.9219 261C18.6094 262.688 17.9531 263.609 17.9531 263.766ZM17.25 262.312C17.4062 262.312 18.3125 261.281 19.9688 259.219C22.125 256.531 23.7969 253.875 24.9844 251.25L25.1719 250.781C25.0781 250.781 24.2969 251.938 22.8281 254.25C21.4844 256.344 20.2812 258.094 19.2188 259.5C18.75 260.062 18.3125 260.625 17.9062 261.188C17.5312 261.719 17.2969 262.094 17.2031 262.312H17.25ZM23.8125 261.469C23.875 261.469 23.9375 261.438 24 261.375C24.0625 261.281 24.1406 261.188 24.2344 261.094C24.3281 261 24.4531 260.812 24.6094 260.531C24.7969 260.25 25.0938 259.672 25.5 258.797L24.8906 259.641C24.7031 259.891 24.5156 260.156 24.3281 260.438C24.1719 260.688 24.0469 260.922 23.9531 261.141L23.8125 261.469ZM12.0469 261.281C12.4531 260.781 12.8438 260.281 13.2188 259.781C13.625 259.25 14.4688 258.047 15.75 256.172C21.6562 247.641 25.0938 240.906 26.0625 235.969C26.625 233.344 26.9062 231.234 26.9062 229.641C26.9062 229.203 26.875 228.828 26.8125 228.516C26.375 226.484 23.8438 225.422 19.2188 225.328C17.4375 225.328 16.2656 225.406 15.7031 225.562C15.1406 225.688 14.8594 225.953 14.8594 226.359C14.8594 226.734 14.625 227.188 14.1562 227.719C12.5312 229.062 11.7188 236.516 11.7188 250.078C11.7188 252.578 11.7344 254.797 11.7656 256.734C11.7969 258.672 11.8438 259.828 11.9062 260.203C11.9688 260.578 12.0156 260.938 12.0469 261.281ZM18.7969 258.562C18.8281 258.562 18.9531 258.422 19.1719 258.141C19.5469 257.703 19.9375 257.188 20.3438 256.594C20.7812 255.969 21.1562 255.406 21.4688 254.906C21.7812 254.375 22.0938 253.828 22.4062 253.266C22.7188 252.672 22.9844 252.156 23.2031 251.719C23.4219 251.281 23.5312 251.031 23.5312 250.969C23.5 250.969 23.4688 251 23.4375 251.062C23.4062 251.094 23.125 251.531 22.5938 252.375C22.0625 253.188 21.4219 254.188 20.6719 255.375C19.4219 257.375 18.7969 258.438 18.7969 258.562ZM6.04688 256.266L6.1875 254.391C6.46875 248.641 6.92188 243.375 7.54688 238.594C7.95312 235.562 8.34375 233.203 8.71875 231.516C9.09375 229.828 9.28125 228.875 9.28125 228.656V228.562C9.0625 228.562 8.75 229.516 8.34375 231.422C6.8125 238.547 6.04688 246.828 6.04688 256.266ZM5.625 245.25L5.67188 244.969C5.67188 244.875 5.65625 244.781 5.625 244.688L5.57812 244.547C5.51562 244.547 5.48438 244.641 5.48438 244.828C5.48438 245.109 5.51562 245.25 5.57812 245.25H5.625ZM5.8125 243.469C5.90625 243.469 5.95312 243.312 5.95312 243C5.95312 242.875 5.92188 242.75 5.85938 242.625L5.8125 242.438C5.78125 242.438 5.76562 242.594 5.76562 242.906C5.76562 243.25 5.78125 243.438 5.8125 243.469ZM8.20312 242.203C8.23438 242.141 8.26562 241.906 8.29688 241.5C8.32812 241.062 8.35938 240.562 8.39062 240C8.45312 239.438 8.48438 239.031 8.48438 238.781C8.48438 238.562 8.46875 238.453 8.4375 238.453L8.39062 238.688C8.23438 239.344 8.15625 240.312 8.15625 241.594C8.15625 241.781 8.15625 241.938 8.15625 242.062C8.15625 242.156 8.17188 242.203 8.20312 242.203ZM6.04688 241.359C6.07812 241.359 6.10938 241.312 6.14062 241.219C6.17188 241.094 6.1875 240.938 6.1875 240.75C6.1875 240.594 6.17188 240.453 6.14062 240.328C6.10938 240.203 6.07812 240.141 6.04688 240.141C6.01562 240.141 6 240.344 6 240.75C6 241.156 6.01562 241.359 6.04688 241.359ZM6.28125 239.484C6.375 239.484 6.42188 239.312 6.42188 238.969C6.42188 238.625 6.375 238.453 6.28125 238.453C6.25 238.453 6.23438 238.609 6.23438 238.922C6.23438 239.266 6.25 239.453 6.28125 239.484ZM6.5625 237.797L6.60938 237.703C6.64062 237.609 6.65625 237.5 6.65625 237.375C6.65625 236.969 6.60938 236.766 6.51562 236.766C6.48438 236.766 6.46875 236.922 6.46875 237.234C6.46875 237.609 6.5 237.797 6.5625 237.797ZM8.71875 237.234C8.78125 237.234 8.8125 237.078 8.8125 236.766C8.8125 236.359 8.78125 236.156 8.71875 236.156C8.6875 236.156 8.65625 236.328 8.625 236.672C8.625 237.016 8.65625 237.203 8.71875 237.234ZM6.75 236.156C6.78125 236 6.82812 235.828 6.89062 235.641C6.95312 235.453 7 235.234 7.03125 234.984C7.09375 234.734 7.125 234.547 7.125 234.422C7.125 234.203 7.10938 234.094 7.07812 234.094C7.04688 234.094 6.98438 234.219 6.89062 234.469C6.82812 234.719 6.78125 234.969 6.75 235.219C6.71875 235.469 6.70312 235.656 6.70312 235.781C6.70312 236.031 6.71875 236.156 6.75 236.156ZM9.23438 234.188C9.29688 234.125 9.32812 234.047 9.32812 233.953L9.1875 233.531C9.125 233.531 9.09375 233.625 9.09375 233.812C9.09375 234.062 9.125 234.188 9.1875 234.188H9.23438ZM7.21875 233.578C7.25 233.578 7.29688 233.453 7.35938 233.203C7.45312 232.953 7.51562 232.719 7.54688 232.5C7.57812 232.281 7.59375 232.109 7.59375 231.984C7.59375 231.859 7.57812 231.797 7.54688 231.797C7.51562 231.797 7.45312 231.922 7.35938 232.172C7.26562 232.422 7.21875 232.719 7.21875 233.062V233.578ZM9.89062 230.25C9.95312 230.25 10.0312 230.078 10.125 229.734V229.5C10.125 229.344 10.1094 229.266 10.0781 229.266C10.0469 229.266 10.0156 229.281 9.98438 229.312C9.95312 229.344 9.90625 229.422 9.84375 229.547C9.8125 229.672 9.79688 229.781 9.79688 229.875C9.79688 230.125 9.82812 230.25 9.89062 230.25ZM44.1094 283.641C43.5781 283.641 43.1094 283.469 42.7031 283.125C42.3594 282.75 41.9688 282.562 41.5312 282.562C41.2188 282.562 40.8281 282.656 40.3594 282.844C40.1094 282.969 39.875 283.031 39.6562 283.031C39.4062 283.031 38.8438 282.812 37.9688 282.375C37.125 281.938 36.5312 281.344 36.1875 280.594C35.8438 279.844 35.6562 278.609 35.625 276.891C35.625 273.828 35.9062 269.734 36.4688 264.609C37.0312 259.453 37.6875 254.453 38.4375 249.609C39.1875 244.766 39.875 241.297 40.5 239.203C41.0625 237.359 41.5469 236.094 41.9531 235.406C42.3906 234.719 42.9219 234.375 43.5469 234.375L43.8281 234.422C44.2031 234.422 44.4531 234.484 44.5781 234.609C44.7344 234.703 44.8281 234.859 44.8594 235.078C44.8906 235.297 44.9375 235.484 45 235.641C45.0938 235.766 45.1875 235.859 45.2812 235.922C45.375 235.953 45.4531 236.031 45.5156 236.156C45.5781 236.25 45.6094 236.359 45.6094 236.484C45.6094 236.609 45.7031 236.672 45.8906 236.672L46.3125 236.578C46.5 236.578 46.5938 236.75 46.5938 237.094C46.5938 237.406 46.6094 237.562 46.6406 237.562C46.7031 237.562 46.7656 237.484 46.8281 237.328C46.9219 237.172 47 237.094 47.0625 237.094C47.0938 237.094 47.1406 237.156 47.2031 237.281C47.2656 237.406 47.3281 237.5 47.3906 237.562C47.4844 237.625 47.5469 237.656 47.5781 237.656L47.8125 237.609C48.0625 237.609 48.1875 237.703 48.1875 237.891C48.1875 238.047 48.1562 238.266 48.0938 238.547C48.0625 238.797 48.0469 238.969 48.0469 239.062C48.0469 239.125 48.0625 239.156 48.0938 239.156C48.125 239.156 48.1719 239.078 48.2344 238.922C48.2969 238.766 48.375 238.656 48.4688 238.594C48.5938 238.5 48.6875 238.453 48.75 238.453C48.875 238.453 48.9375 238.672 48.9375 239.109C48.9375 239.984 48.7031 241.734 48.2344 244.359C47.3281 249.453 46.875 252.406 46.875 253.219C46.9375 253.219 47.0781 253.047 47.2969 252.703C47.5469 252.328 47.8125 251.844 48.0938 251.25C49.4688 248.688 51.1094 246.016 53.0156 243.234C54.9531 240.453 56.8125 238.062 58.5938 236.062C59.9062 234.625 60.9062 233.906 61.5938 233.906C62.0625 233.906 62.4375 234.219 62.7188 234.844C62.9062 235.312 63.3125 235.828 63.9375 236.391C64.8438 237.234 65.4688 238.422 65.8125 239.953C66.1875 241.828 66.4688 242.766 66.6562 242.766C66.75 242.766 67.375 242.266 68.5312 241.266C69.0312 240.766 69.6562 240.234 70.4062 239.672C71.1562 239.109 71.7188 238.828 72.0938 238.828C72.4375 238.828 72.6094 238.953 72.6094 239.203C72.6094 239.359 72.5156 239.562 72.3281 239.812C72.1719 240.031 72.0938 240.188 72.0938 240.281C72.0938 240.344 72.125 240.375 72.1875 240.375C72.2812 240.375 72.4375 240.25 72.6562 240L72.7969 239.953C72.7969 240.078 72.5938 240.531 72.1875 241.312L72.7969 240.562C73.0469 240.188 73.2344 240 73.3594 240C73.4219 240 73.4844 240.078 73.5469 240.234C73.6094 240.359 73.6406 240.516 73.6406 240.703C73.6406 241.609 73.2031 242.797 72.3281 244.266C71.4531 245.734 70.4219 246.984 69.2344 248.016C68.6406 248.578 68.0938 248.859 67.5938 248.859C66.8438 248.859 65.8906 248.109 64.7344 246.609C63.4844 245.141 62.6406 243.906 62.2031 242.906C61.8906 242.094 61.6562 241.688 61.5 241.688C61.4375 241.688 61.3906 241.719 61.3594 241.781C60.5781 243.281 59.3281 246.359 57.6094 251.016C55.8906 255.672 54.5938 259.094 53.7188 261.281C51.7812 266.344 49.75 271.969 47.625 278.156C46.75 280.688 46.1562 282.25 45.8438 282.844C45.4062 283.375 44.8281 283.641 44.1094 283.641ZM39.9375 273.844C40.0625 273.656 40.2344 272.062 40.4531 269.062C40.8281 264.906 41.1562 261.609 41.4375 259.172C41.7188 256.422 41.8594 254.703 41.8594 254.016C41.8594 253.766 41.8438 253.641 41.8125 253.641C41.7188 253.641 41.5625 254.484 41.3438 256.172C40.375 263.953 39.8906 269.625 39.8906 273.188C39.8906 273.625 39.9062 273.844 39.9375 273.844ZM41.5781 267.703C41.7656 266.547 41.875 265.719 41.9062 265.219C41.9375 264.688 41.9531 264.203 41.9531 263.766V262.266L41.7656 263.906C41.6406 265 41.5781 265.906 41.5781 266.625V267.703ZM39.4688 266.719C39.5625 266.719 39.6094 266.625 39.6094 266.438C39.6094 266.188 39.5625 266.062 39.4688 266.062C39.4375 266.062 39.4219 266.188 39.4219 266.438C39.4219 266.625 39.4375 266.719 39.4688 266.719ZM39.75 262.922C39.8125 262.922 39.9688 261.844 40.2188 259.688C40.5625 256.906 40.7344 255.219 40.7344 254.625V254.484C40.6406 254.484 40.4688 255.531 40.2188 257.625C39.9688 259.688 39.8125 261.328 39.75 262.547V262.922ZM51.6562 255.844C51.7812 255.844 52.4062 254.594 53.5312 252.094C55.625 247.594 57.3906 244.109 58.8281 241.641C59.3281 240.766 59.5781 240.25 59.5781 240.094V240.047C59.5156 240.047 59.3906 240.188 59.2031 240.469C58.8906 240.938 58.1562 242.266 57 244.453C56.2812 245.766 55.2188 247.922 53.8125 250.922C52.4062 253.922 51.6875 255.562 51.6562 255.844ZM59.7656 239.812C59.8594 239.812 60 239.672 60.1875 239.391L60.4688 239.016C60.4375 239.016 60.3281 239.094 60.1406 239.25C60.0781 239.312 59.9844 239.406 59.8594 239.531C59.7656 239.625 59.7188 239.688 59.7188 239.719C59.7188 239.781 59.7344 239.812 59.7656 239.812ZM84.5156 237.141C84.2969 237.141 84.0156 237.016 83.6719 236.766C83.3594 236.516 83.0156 236.391 82.6406 236.391C82.2656 236.391 81.875 236.266 81.4688 236.016C81.0625 235.766 80.8594 235.312 80.8594 234.656V234.469C80.8594 233.812 81.0156 232.891 81.3281 231.703C81.5156 231.047 81.6875 230.234 81.8438 229.266C82 228.297 82.1094 227.375 82.1719 226.5C82.2969 225.281 82.4219 224.406 82.5469 223.875C82.6719 223.344 82.875 222.891 83.1562 222.516C83.4688 222.109 83.8281 221.781 84.2344 221.531C84.6406 221.25 85.0156 221.109 85.3594 221.109C85.4219 221.109 85.7031 221.328 86.2031 221.766C86.6094 222.203 87.1094 222.484 87.7031 222.609C89.1719 222.922 89.9062 223.516 89.9062 224.391C89.9062 225.078 89.6719 226.234 89.2031 227.859C88.7656 229.453 88.2344 230.938 87.6094 232.312C86.8281 234.062 86.2188 235.312 85.7812 236.062C85.3438 236.781 84.9219 237.141 84.5156 237.141ZM81.8438 251.062C81.9062 251.031 81.9375 250.922 81.9375 250.734C81.9375 250.672 81.9219 250.609 81.8906 250.547C81.8594 250.453 81.8125 250.406 81.75 250.406C81.75 250.594 81.7344 250.734 81.7031 250.828C81.7031 250.953 81.75 251.031 81.8438 251.062ZM79.125 257.578C79.2188 257.578 79.6562 255.953 80.4375 252.703C81.0312 250.297 81.3281 248.859 81.3281 248.391V248.203C81.2031 248.203 81.0469 248.578 80.8594 249.328L79.5938 254.859C79.25 256.109 79.0781 256.953 79.0781 257.391C79.0781 257.516 79.0938 257.578 79.125 257.578ZM76.6875 268.312C76.7812 268.312 77.5469 265.109 78.9844 258.703L79.0312 258.328C79.0312 258.266 79.0156 258.234 78.9844 258.234C78.9531 258.266 78.9062 258.312 78.8438 258.375C78.7812 258.438 78.6562 258.891 78.4688 259.734C78 261.547 77.5469 263.594 77.1094 265.875C76.8281 267.219 76.6875 268.031 76.6875 268.312ZM76.5 270.422L76.5469 270.328C76.5781 270.266 76.5938 270.203 76.5938 270.141C76.5938 269.953 76.5781 269.828 76.5469 269.766C76.5156 269.672 76.4844 269.609 76.4531 269.578C76.4219 269.578 76.4062 269.719 76.4062 270C76.4062 270.281 76.4375 270.422 76.5 270.422ZM76.2656 271.734C76.3281 271.734 76.3594 271.609 76.3594 271.359C76.3594 271.172 76.3438 271.062 76.3125 271.031C76.3125 270.969 76.2969 270.938 76.2656 270.938V270.891C76.2344 270.891 76.2188 271.031 76.2188 271.312L76.2656 271.734ZM77.2969 279.938C77.3906 279.938 77.4375 278.953 77.4375 276.984C77.4375 274.453 77.5 272.875 77.625 272.25C78.3125 267.406 79.2656 262.297 80.4844 256.922C81.2656 253.578 81.6562 251.766 81.6562 251.484C81.625 251.484 81.4688 252 81.1875 253.031C80.9375 254.062 80.625 255.328 80.25 256.828C79.3125 260.859 78.625 264.094 78.1875 266.531C77.75 268.938 77.4219 271.297 77.2031 273.609C77.0156 275.297 76.9219 276.625 76.9219 277.594C76.9219 278.406 77.0156 279.125 77.2031 279.75C77.2344 279.875 77.2656 279.938 77.2969 279.938ZM76.4531 281.297V281.156C76.4531 281 76.4062 280.797 76.3125 280.547C76.25 280.297 76.125 279.578 75.9375 278.391C75.8125 277.641 75.7188 276.906 75.6562 276.188L75.7031 278.625C75.7969 280.406 76.0469 281.297 76.4531 281.297ZM82.125 285.234C81.5625 285.234 80.9844 285.125 80.3906 284.906C80.0156 284.781 79.6406 284.719 79.2656 284.719C78.9844 284.719 78.6719 284.75 78.3281 284.812C78.0156 284.875 77.7188 284.906 77.4375 284.906C76.9375 284.906 76.2812 284.797 75.4688 284.578C73.9062 284.203 72.7969 283.594 72.1406 282.75C71.4844 281.875 71.1406 280.547 71.1094 278.766V277.5C71.1094 276.969 71.125 276.438 71.1562 275.906C71.1562 275.344 71.1875 274.875 71.25 274.5C71.4375 273.25 71.8281 271.359 72.4219 268.828C73.0156 266.266 73.6094 263.844 74.2031 261.562C74.4844 260.625 74.7031 259.797 74.8594 259.078C75.0156 258.359 75.0938 257.938 75.0938 257.812C75.0938 257.531 74.875 257.25 74.4375 256.969C74 256.688 73.7656 256.281 73.7344 255.75C73.7344 255.031 73.9375 253.688 74.3438 251.719C75.4688 246.312 76.8594 243.094 78.5156 242.062C78.9219 241.781 79.2656 241.641 79.5469 241.641C79.8906 241.641 80.2031 241.812 80.4844 242.156C80.7969 242.5 81.4219 242.812 82.3594 243.094C84.2344 243.656 85.1719 244.625 85.1719 246V247.688C85.1719 249.469 84.8125 251.875 84.0938 254.906C82.9062 260.344 82.1094 264.812 81.7031 268.312C81.4844 270.281 81.375 272.609 81.375 275.297C81.375 276.828 81.4375 277.594 81.5625 277.594C81.625 277.594 81.8281 277.406 82.1719 277.031C83.0781 276.094 84.8438 273.922 87.4688 270.516L94.5 261.422C97.25 257.828 98.7969 255.922 99.1406 255.703L99.4219 255.656C99.5781 255.656 99.7344 255.719 99.8906 255.844C100.047 255.969 100.344 256.062 100.781 256.125C101.219 256.188 101.531 256.453 101.719 256.922C101.781 257.016 101.812 257.172 101.812 257.391C101.812 257.703 101.734 258.062 101.578 258.469C101.453 258.875 101.219 259.453 100.875 260.203C99.5 263.266 97.7969 266.562 95.7656 270.094C93.7344 273.594 91.875 276.484 90.1875 278.766C88.5 281.016 87.0312 282.656 85.7812 283.688C84.5312 284.719 83.3125 285.234 82.125 285.234ZM102.094 302.484C101.438 302.484 100.906 302.422 100.5 302.297C100.125 302.203 99.7188 302.031 99.2812 301.781C98.8438 301.562 98.3594 301.234 97.8281 300.797C97.2969 300.391 96.8438 299.969 96.4688 299.531C96.0625 299.125 95.6562 298.719 95.25 298.312C94.8125 297.938 94.4531 297.656 94.1719 297.469C93.8906 297.281 93.5469 296.969 93.1406 296.531C92.7344 296.125 92.3594 295.656 92.0156 295.125C91.6406 294.594 91.3906 294.156 91.2656 293.812C91.1094 293.5 91.0312 293.094 91.0312 292.594C91.0312 290.969 91.1406 289.703 91.3594 288.797C91.5156 288.172 91.8125 287.422 92.25 286.547C93.5312 283.703 95.7812 280.672 99 277.453C101.688 274.672 104.672 272.172 107.953 269.953C111.391 267.609 116.094 264.984 122.062 262.078C120.875 262.016 119.688 261.984 118.5 261.984C116.25 261.984 113.969 262.109 111.656 262.359C108.781 262.641 106.625 262.781 105.188 262.781C104 262.781 103.125 262.688 102.562 262.5C102.188 262.406 101.781 262.188 101.344 261.844C100.906 261.5 100.516 261.141 100.172 260.766C99.8281 260.391 99.6562 260.141 99.6562 260.016C99.6562 259.859 99.5781 259.672 99.4219 259.453C99.2969 259.234 99.125 259.031 98.9062 258.844C98.375 258.312 97.9375 257.641 97.5938 256.828C97.25 255.984 97.0781 255.188 97.0781 254.438C97.0781 250.812 100.734 245.422 108.047 238.266C115.047 231.484 120.375 228.094 124.031 228.094C124.906 228.094 125.703 228.266 126.422 228.609C127.359 229.078 128.016 229.469 128.391 229.781C129.359 230.969 130.047 233.062 130.453 236.062C130.578 237.156 130.641 237.828 130.641 238.078C130.641 238.328 130.578 238.469 130.453 238.5C130.234 238.5 129.781 238.219 129.094 237.656C128.625 237.312 128.203 237.094 127.828 237C127.453 236.875 126.859 236.812 126.047 236.812C124.984 236.812 123.953 237.031 122.953 237.469C121.984 237.875 120.688 238.656 119.062 239.812C117.031 241.594 114.75 243.719 112.219 246.188C109.719 248.656 107.5 250.922 105.562 252.984C103.656 255.016 102.703 256.156 102.703 256.406C102.703 256.469 102.734 256.5 102.797 256.5C103.266 256.5 104.438 256.266 106.312 255.797C111.125 254.516 115.094 253.875 118.219 253.875C121.125 253.875 123.516 254.422 125.391 255.516C125.984 255.859 126.625 256.359 127.312 257.016C128 257.641 128.484 258.188 128.766 258.656C128.828 258.844 128.984 258.938 129.234 258.938C129.672 258.938 131.484 258.359 134.672 257.203C139.953 255.297 143.438 254.344 145.125 254.344C145.844 254.344 146.266 254.406 146.391 254.531C146.547 254.656 146.625 254.969 146.625 255.469C146.625 255.938 146.703 256.172 146.859 256.172L147.141 256.125C147.266 256.125 147.328 256.203 147.328 256.359C147.328 256.922 147.109 257.422 146.672 257.859C146.453 258.078 145.812 258.469 144.75 259.031C143.688 259.562 142.422 260.156 140.953 260.812C139.516 261.438 138.156 262.047 136.875 262.641L132.281 264.75C132.375 265.125 132.453 265.484 132.516 265.828C132.578 266.172 132.625 266.719 132.656 267.469C132.719 268.188 132.75 268.922 132.75 269.672C132.75 270.797 132.688 271.703 132.562 272.391C132.438 273.047 132.188 273.844 131.812 274.781C129.969 279.188 126.672 284.062 121.922 289.406C117.172 294.75 112.656 298.625 108.375 301.031C107.344 301.594 106.531 301.953 105.938 302.109C105.094 302.359 103.812 302.484 102.094 302.484ZM98.6719 292.078C98.8281 292.078 99.1562 291.938 99.6562 291.656C100.188 291.406 101.031 290.953 102.188 290.297C105.312 288.578 108.531 286.359 111.844 283.641C115.156 280.922 117.906 278.266 120.094 275.672C121.281 274.266 122.344 272.891 123.281 271.547C124.219 270.203 124.688 269.391 124.688 269.109C124.688 269.047 124.672 269.016 124.641 269.016C124.297 269.016 123.188 269.578 121.312 270.703C119.438 271.797 117.359 273.094 115.078 274.594C112.828 276.062 110.875 277.422 109.219 278.672C106.656 280.672 104.234 283.094 101.953 285.938C99.6719 288.75 98.5312 290.719 98.5312 291.844C98.5312 292 98.5781 292.078 98.6719 292.078ZM114.656 290.156C114.719 290.156 115.078 289.891 115.734 289.359C117.703 287.797 119.688 285.828 121.688 283.453L122.906 281.953C122.844 281.953 122.078 282.703 120.609 284.203C118.516 286.297 116.875 287.906 115.688 289.031C115 289.688 114.656 290.062 114.656 290.156ZM94.5 290.297C94.625 290.297 94.9531 289.688 95.4844 288.469C96.2031 286.906 96.6562 286.016 96.8438 285.797C97 285.578 97.0781 285.453 97.0781 285.422C96.8281 285.422 96.4219 285.922 95.8594 286.922C94.9219 288.641 94.4531 289.75 94.4531 290.25C94.4531 290.281 94.4688 290.297 94.5 290.297ZM95.9531 289.453C96.0469 289.453 96.2344 289.172 96.5156 288.609C96.6719 288.266 97.2031 287.328 98.1094 285.797C98.6719 284.891 99.4844 283.781 100.547 282.469L101.25 281.578L100.031 282.891C99 284.047 98.0625 285.312 97.2188 286.688C96.3438 288.031 95.9062 288.922 95.9062 289.359C95.9062 289.422 95.9219 289.453 95.9531 289.453ZM115.875 287.25C115.938 287.25 116.312 286.906 117 286.219C117.719 285.5 118.562 284.641 119.531 283.641C121.125 281.984 122.609 280.281 123.984 278.531C125.391 276.75 126.359 275.344 126.891 274.312C126.984 274.094 127.031 273.953 127.031 273.891C126.938 273.891 126.141 274.922 124.641 276.984C123.359 278.734 121.531 280.891 119.156 283.453C117 285.859 115.906 287.125 115.875 287.25ZM119.062 282.375C119.094 282.375 119.484 281.969 120.234 281.156C121.328 279.969 122.359 278.766 123.328 277.547C123.891 276.766 124.172 276.344 124.172 276.281C124.078 276.281 123.047 277.469 121.078 279.844C119.734 281.469 119.062 282.312 119.062 282.375ZM102.422 249.141C102.453 249.141 103.484 247.812 105.516 245.156L107.156 243C107.125 243 106.75 243.406 106.031 244.219C104.875 245.5 103.906 246.766 103.125 248.016L102.422 249.141ZM111.562 238.406C111.688 238.406 111.875 238.234 112.125 237.891C112.312 237.641 112.406 237.5 112.406 237.469C112.375 237.469 112.266 237.547 112.078 237.703C111.891 237.859 111.75 237.984 111.656 238.078C111.562 238.172 111.516 238.234 111.516 238.266C111.516 238.359 111.531 238.406 111.562 238.406ZM147.375 286.641C147.375 286.578 147.359 286.547 147.328 286.547C147.266 286.547 147.234 286.75 147.234 287.156C147.234 287.312 147.25 287.453 147.281 287.578L147.328 287.766C147.359 287.766 147.375 287.734 147.375 287.672C147.438 287.484 147.469 287.312 147.469 287.156C147.469 287 147.438 286.828 147.375 286.641ZM181.547 223.219C181.797 222.656 182 222.172 182.156 221.766C182.344 221.359 182.438 221.125 182.438 221.062C182.406 221.062 182.281 221.266 182.062 221.672C181.844 222.047 181.594 222.516 181.312 223.078C181.062 223.609 180.828 224.109 180.609 224.578C180.422 225.016 180.328 225.266 180.328 225.328C180.328 225.422 180.344 225.469 180.375 225.469C180.406 225.469 180.516 225.312 180.703 225C180.891 224.656 181.172 224.062 181.547 223.219ZM180.188 224.156C180.531 223.25 180.875 222.453 181.219 221.766C181.562 221.047 181.797 220.578 181.922 220.359C182.141 219.984 182.25 219.719 182.25 219.562V219.516C182.156 219.516 181.906 219.875 181.5 220.594C181.125 221.312 180.719 222.156 180.281 223.125C179.844 224.062 179.453 224.938 179.109 225.75C178.797 226.562 178.641 227.062 178.641 227.25C178.641 227.344 178.656 227.406 178.688 227.438C178.719 227.438 178.844 227.203 179.062 226.734C179.281 226.234 179.656 225.375 180.188 224.156ZM179.344 228.516C179.375 228.328 179.391 228.172 179.391 228.047C179.359 228.047 179.312 228.109 179.25 228.234C179.156 228.359 179.078 228.531 179.016 228.75C178.953 228.938 178.875 229.125 178.781 229.312C178.75 229.531 178.734 229.688 178.734 229.781L178.828 229.594C178.922 229.438 179.016 229.266 179.109 229.078C179.203 228.859 179.281 228.672 179.344 228.516ZM178.5 227.719C178.469 227.719 178.391 227.844 178.266 228.094C178.172 228.344 178.062 228.641 177.938 228.984C177.844 229.297 177.75 229.609 177.656 229.922C177.562 230.234 177.516 230.438 177.516 230.531V230.578C177.547 230.578 177.609 230.469 177.703 230.25C177.828 230 177.953 229.703 178.078 229.359C178.359 228.484 178.5 227.969 178.5 227.812V227.719ZM149.625 233.391L149.578 233.297C149.484 233.297 149.438 233.391 149.438 233.578C149.438 233.797 149.484 233.922 149.578 233.953H149.625C149.688 233.859 149.719 233.766 149.719 233.672C149.719 233.578 149.688 233.484 149.625 233.391ZM177.984 232.125C177.891 232.125 177.797 232.25 177.703 232.5C177.609 232.75 177.5 233.047 177.375 233.391C177.25 233.734 177.141 234.062 177.047 234.375C176.984 234.688 176.953 234.906 176.953 235.031V235.125C177.047 235.125 177.234 234.688 177.516 233.812C177.641 233.438 177.75 233.094 177.844 232.781C177.938 232.469 177.984 232.266 177.984 232.172V232.125ZM176.906 235.5L176.531 236.344C176.406 236.562 176.297 236.844 176.203 237.188C176.141 237.5 176.062 237.766 175.969 237.984L175.828 238.781L176.203 237.938C176.359 237.719 176.484 237.453 176.578 237.141C176.672 236.797 176.75 236.516 176.812 236.297L176.906 235.5ZM151.078 238.172C151.078 238.109 151.047 238.078 150.984 238.078C150.953 238.078 150.938 238.281 150.938 238.688C150.938 239.062 150.953 239.266 150.984 239.297C151.047 239.297 151.078 239.25 151.078 239.156C151.109 239 151.125 238.844 151.125 238.688C151.125 238.5 151.109 238.328 151.078 238.172ZM175.219 241.734C175.219 241.609 175.203 241.547 175.172 241.547C175.109 241.547 175.031 241.641 174.938 241.828C174.875 242.016 174.812 242.203 174.75 242.391C174.719 242.578 174.703 242.719 174.703 242.812C174.703 242.906 174.719 242.953 174.75 242.953C174.812 242.953 174.875 242.875 174.938 242.719C175 242.531 175.062 242.359 175.125 242.203C175.188 242.016 175.219 241.859 175.219 241.734ZM150.797 239.906L150.562 240.984C150.5 241.328 150.438 241.703 150.375 242.109C150.344 242.484 150.328 242.812 150.328 243.094V244.078L150.609 242.953C150.672 242.609 150.719 242.25 150.75 241.875C150.812 241.5 150.844 241.172 150.844 240.891L150.797 239.906ZM149.109 245.672C149.203 244.797 149.312 243.906 149.438 243C149.562 242.062 149.656 241.312 149.719 240.75C149.844 240.156 149.938 239.438 150 238.594C150.125 237.906 150.219 237.281 150.281 236.719C150.406 236.094 150.5 235.422 150.562 234.703C150.656 234.109 150.734 233.656 150.797 233.344C150.828 233 150.844 232.734 150.844 232.547C150.844 232.266 150.797 232.109 150.703 232.078C150.578 232.359 150.344 233.609 150 235.828C149.688 238.047 149.359 240.562 149.016 243.375C148.891 244.5 148.766 245.5 148.641 246.375C148.547 247.25 148.484 247.781 148.453 247.969C148.422 248.094 148.406 248.203 148.406 248.297C148.406 248.484 148.438 248.578 148.5 248.578C148.594 248.578 148.688 248.297 148.781 247.734C148.906 247.141 149.016 246.453 149.109 245.672ZM150.375 245.438C150.438 245.156 150.469 244.906 150.469 244.688C150.469 244.406 150.422 244.25 150.328 244.219C150.266 244.219 150.172 244.5 150.047 245.062C149.953 245.625 149.859 246.266 149.766 246.984C149.703 247.703 149.672 248.281 149.672 248.719C149.672 249 149.688 249.172 149.719 249.234C149.719 249.266 149.734 249.281 149.766 249.281C149.891 249.281 150.094 248 150.375 245.438ZM148.453 249.281C148.391 249.281 148.359 249.422 148.359 249.703C148.359 249.984 148.375 250.125 148.406 250.125C148.438 250.125 148.469 250.094 148.5 250.031C148.562 249.938 148.594 249.812 148.594 249.656C148.594 249.562 148.562 249.453 148.5 249.328L148.453 249.281ZM191.859 249.516C191.859 249.422 191.844 249.375 191.812 249.375C191.781 249.375 191.766 249.578 191.766 249.984C191.766 250.391 191.781 250.594 191.812 250.594C191.844 250.594 191.859 250.547 191.859 250.453C191.891 250.297 191.906 250.141 191.906 249.984C191.906 249.797 191.891 249.641 191.859 249.516ZM185.953 242.438C185.953 241.75 185.938 241.188 185.906 240.75C185.906 240.312 185.891 240.078 185.859 240.047C185.828 240.141 185.781 240.734 185.719 241.828C185.688 242.922 185.656 244.266 185.625 245.859C185.594 247.141 185.578 248.141 185.578 248.859C185.578 249.797 185.594 250.266 185.625 250.266C185.656 250.266 185.688 250.172 185.719 249.984C185.812 249.516 185.875 248.734 185.906 247.641C185.938 246.516 185.953 245.375 185.953 244.219V242.438ZM149.766 251.25C149.828 251.031 149.859 250.828 149.859 250.641C149.859 250.234 149.797 249.953 149.672 249.797L149.625 249.75C149.5 249.75 149.438 249.875 149.438 250.125C149.438 250.344 149.406 250.656 149.344 251.062C149.344 251.25 149.328 251.422 149.297 251.578C149.266 251.766 149.25 251.938 149.25 252.094C149.25 252.312 149.297 252.422 149.391 252.422C149.484 252.422 149.562 252.312 149.625 252.094C149.688 251.875 149.734 251.594 149.766 251.25ZM186.984 256.219C187.078 254.781 187.141 252.594 187.172 249.656C187.234 246.719 187.266 244.188 187.266 242.062C187.266 241.125 187.25 240.359 187.219 239.766C187.219 239.172 187.203 238.875 187.172 238.875V238.922C187.109 239.484 187.031 240.891 186.938 243.141C186.844 245.359 186.766 247.797 186.703 250.453C186.641 253.109 186.609 255.156 186.609 256.594C186.609 257.594 186.625 258.125 186.656 258.188C186.75 258.125 186.812 257.906 186.844 257.531C186.906 257.156 186.953 256.719 186.984 256.219ZM149.25 255.562C149.281 254.75 149.297 254.172 149.297 253.828V253.547C149.266 253.547 149.234 253.641 149.203 253.828C149.078 254.516 148.969 255.484 148.875 256.734C148.781 257.984 148.734 258.906 148.734 259.5C148.734 259.781 148.75 259.922 148.781 259.922L148.828 259.734C148.922 259.391 149 258.828 149.062 258.047C149.156 257.266 149.219 256.438 149.25 255.562ZM188.766 252.703C188.766 250.016 188.734 248.641 188.672 248.578C188.641 248.578 188.594 248.672 188.531 248.859C188.5 249.328 188.469 250.297 188.438 251.766C188.406 253.203 188.375 254.812 188.344 256.594C188.344 259.844 188.375 261.391 188.438 261.234C188.469 261.234 188.5 260.969 188.531 260.438C188.625 259.75 188.688 258.672 188.719 257.203C188.75 255.703 188.766 254.203 188.766 252.703ZM148.5 263.531L148.453 263.391C148.391 263.391 148.359 263.547 148.359 263.859C148.359 264.234 148.391 264.422 148.453 264.422L148.5 264.375C148.562 264.25 148.594 264.109 148.594 263.953C148.594 263.828 148.562 263.688 148.5 263.531ZM148.266 271.406C148.266 271.375 148.234 271.344 148.172 271.312L148.125 271.266C148.094 271.266 148.078 271.359 148.078 271.547V271.734C148.078 271.797 148.094 271.844 148.125 271.875V271.922H148.172C148.266 271.859 148.312 271.766 148.312 271.641V271.5C148.281 271.469 148.266 271.438 148.266 271.406ZM148.172 278.719C148.109 278.719 148.078 278.875 148.078 279.188C148.078 279.469 148.094 279.609 148.125 279.609C148.156 279.609 148.203 279.562 148.266 279.469C148.297 279.375 148.312 279.266 148.312 279.141C148.312 279.047 148.297 278.922 148.266 278.766L148.172 278.719ZM148.266 282.797C148.266 282.641 148.234 282.562 148.172 282.562C148.141 282.562 148.125 282.938 148.125 283.688C148.125 284.469 148.141 284.891 148.172 284.953C148.234 284.953 148.266 284.891 148.266 284.766C148.297 284.484 148.312 284.156 148.312 283.781C148.312 283.438 148.297 283.109 148.266 282.797ZM147.094 284.578C147.094 284.484 147.078 284.438 147.047 284.438C146.984 284.438 146.953 284.641 146.953 285.047C146.953 285.516 146.984 285.766 147.047 285.797C147.078 285.797 147.094 285.766 147.094 285.703C147.125 285.578 147.141 285.391 147.141 285.141C147.141 284.953 147.125 284.766 147.094 284.578ZM183.656 295.594C182.5 294.125 181.578 290.094 180.891 283.5C180.734 281.812 180.656 279.062 180.656 275.25C180.656 272.094 180.703 268.656 180.797 264.938C180.891 261.219 181.016 257.891 181.172 254.953C181.234 253.328 181.344 251.203 181.5 248.578C181.656 245.922 181.781 243.344 181.875 240.844C182 238.406 182.109 236.188 182.203 234.188C182.328 232.156 182.422 230.812 182.484 230.156C182.516 229.656 182.531 229.281 182.531 229.031C182.531 228.594 182.5 228.375 182.438 228.375C182.219 228.375 181.75 229.406 181.031 231.469C179.719 235.375 178.5 240.25 177.375 246.094C175.438 256.156 173.703 262.297 172.172 264.516C171.391 265.578 170.469 266.109 169.406 266.109C169.031 266.109 168.625 266.062 168.188 265.969C167.844 265.875 167.359 265.781 166.734 265.688C166.141 265.594 165.578 265.547 165.047 265.547C163.297 265.547 161.797 265.047 160.547 264.047C159.328 263.047 158.125 261.375 156.938 259.031C156.594 258.344 156.203 257.5 155.766 256.5C155.359 255.5 154.984 254.562 154.641 253.688C154.359 252.875 154.109 252.219 153.891 251.719C153.703 251.188 153.562 250.906 153.469 250.875C153.406 251.031 153.297 252.141 153.141 254.203C153.016 256.234 152.859 258.75 152.672 261.75C152.516 264.719 152.375 267.719 152.25 270.75C151.844 283.344 151.266 289.75 150.516 289.969C150.297 290.094 150.078 290.156 149.859 290.156C149.453 290.156 149.141 289.906 148.922 289.406C148.766 289.031 148.625 288.844 148.5 288.844C148.438 288.844 148.375 288.969 148.312 289.219C148.219 289.406 148.156 289.5 148.125 289.5C148.062 289.5 147.969 289.297 147.844 288.891L147.656 288.094L147.469 288.891C147.406 289.203 147.328 289.422 147.234 289.547C147.141 289.672 146.984 289.734 146.766 289.734L146.391 289.641C145.359 289.609 144.547 288.781 143.953 287.156C143.391 285.5 142.953 282.766 142.641 278.953C142.516 277.453 142.453 275.656 142.453 273.562C142.453 270.125 142.625 266.344 142.969 262.219C143.438 256.625 144.094 250.625 144.938 244.219C145.812 237.781 146.703 232.016 147.609 226.922C148.516 221.828 149.266 218.531 149.859 217.031C150.109 216.438 150.531 216.078 151.125 215.953H151.547C151.953 215.953 152.312 216.016 152.625 216.141C152.969 216.266 153.141 216.438 153.141 216.656C153.141 216.875 153.281 217.109 153.562 217.359C153.844 217.609 154.109 217.734 154.359 217.734C154.516 217.734 154.625 217.766 154.688 217.828C154.781 217.859 154.828 217.922 154.828 218.016C154.828 218.078 154.906 218.156 155.062 218.25C155.219 218.312 155.406 218.375 155.625 218.438C155.844 218.469 156.109 218.578 156.422 218.766C156.734 218.953 157 219.172 157.219 219.422C157.469 219.609 157.656 219.844 157.781 220.125C157.906 220.406 158 220.891 158.062 221.578C158.125 222.266 158.234 223.312 158.391 224.719V225.047C159.078 233.984 160.406 241.688 162.375 248.156C163 250.188 163.625 252 164.25 253.594C164.875 255.156 165.281 256 165.469 256.125C165.531 256.125 165.625 255.969 165.75 255.656C165.906 255.312 166.078 254.891 166.266 254.391C166.828 252.547 167.844 249.422 169.312 245.016C170.812 240.609 172.359 236.141 173.953 231.609C175.547 227.078 176.781 223.703 177.656 221.484C179.375 216.859 180.859 214.422 182.109 214.172C182.547 214.016 182.906 213.938 183.188 213.938C183.5 213.938 183.781 214.031 184.031 214.219C184.281 214.406 184.625 214.719 185.062 215.156C185.438 215.5 185.844 215.859 186.281 216.234C186.75 216.609 187.156 216.906 187.5 217.125C188.906 217.875 189.938 219.047 190.594 220.641C191.25 222.234 191.797 224.891 192.234 228.609C192.547 230.891 192.812 234.047 193.031 238.078C193.25 242.078 193.453 247.594 193.641 254.625C193.703 257.406 193.828 260.562 194.016 264.094C194.203 267.594 194.391 270.688 194.578 273.375C194.766 275.812 194.891 277.781 194.953 279.281C195.016 280.781 195.047 282.125 195.047 283.312C195.047 284.781 195 286.297 194.906 287.859C194.812 289.172 194.75 290.188 194.719 290.906C194.688 291.656 194.625 292.203 194.531 292.547C194.469 292.922 194.375 293.188 194.25 293.344C194.156 293.531 194.016 293.703 193.828 293.859C193.266 294.328 192.703 294.562 192.141 294.562C191.703 294.562 191.359 294.422 191.109 294.141C190.953 293.953 190.828 293.859 190.734 293.859C190.672 293.859 190.594 294 190.5 294.281C190.438 294.406 190.344 294.5 190.219 294.562C190.125 294.656 190.047 294.703 189.984 294.703L189.797 294.656C189.703 294.656 189.578 294.719 189.422 294.844C189.297 295 189.172 295.172 189.047 295.359C188.859 295.672 188.641 295.891 188.391 296.016C188.172 296.141 187.781 296.25 187.219 296.344C186.406 296.438 185.781 296.484 185.344 296.484C184.906 296.484 184.562 296.406 184.312 296.25C184.094 296.125 183.875 295.906 183.656 295.594ZM211.922 252.984C211.984 252.984 212.172 252.672 212.484 252.047C212.828 251.422 213.234 250.609 213.703 249.609C214.203 248.578 214.703 247.578 215.203 246.609C215.703 245.609 216.094 244.891 216.375 244.453C216.656 244.016 217.016 243.484 217.453 242.859C217.891 242.234 218.328 241.641 218.766 241.078C219.203 240.516 219.656 239.938 220.125 239.344C219.688 239.75 219.25 240.172 218.812 240.609C218.406 241.016 217.953 241.547 217.453 242.203C216.953 242.859 216.5 243.5 216.094 244.125C215.594 244.969 215.016 246.031 214.359 247.312C213.734 248.594 213.172 249.797 212.672 250.922C212.172 252.047 211.922 252.719 211.922 252.938V252.984ZM226.031 254.672C226.125 254.672 226.406 254.172 226.875 253.172C227.406 252.047 227.672 251.344 227.672 251.062V251.016C227.641 251.016 227.547 251.156 227.391 251.438C227.047 252 226.672 252.812 226.266 253.875C226.109 254.281 226.031 254.547 226.031 254.672ZM214.688 255.328C214.781 255.328 215.016 254.844 215.391 253.875C215.797 252.875 216 252.234 216 251.953C215.906 251.953 215.656 252.438 215.25 253.406C214.875 254.375 214.688 255 214.688 255.281V255.328ZM211.172 255.516C211.234 255.516 211.359 255.281 211.547 254.812C211.641 254.562 211.734 254.312 211.828 254.062C211.922 253.781 211.969 253.594 211.969 253.5L211.922 253.453C211.859 253.453 211.766 253.578 211.641 253.828C211.516 254.078 211.391 254.359 211.266 254.672C211.172 254.984 211.125 255.219 211.125 255.375C211.125 255.469 211.141 255.516 211.172 255.516ZM252.891 257.953C252.953 257.953 253.031 257.891 253.125 257.766C253.219 257.609 253.281 257.469 253.312 257.344C253.375 257.188 253.406 257.047 253.406 256.922C253.406 256.828 253.391 256.781 253.359 256.781C253.328 256.781 253.25 256.875 253.125 257.062C253.031 257.219 252.953 257.375 252.891 257.531C252.828 257.656 252.797 257.766 252.797 257.859C252.797 257.922 252.828 257.953 252.891 257.953ZM213.656 258.797C213.688 258.797 213.781 258.594 213.938 258.188L214.5 256.406L214.547 255.938C214.516 255.938 214.422 256.141 214.266 256.547C214.141 256.828 214.016 257.141 213.891 257.484C213.797 257.828 213.734 258.125 213.703 258.375C213.672 258.594 213.656 258.734 213.656 258.797ZM252.281 259.594C252.344 259.594 252.422 259.516 252.516 259.359C252.641 259.203 252.719 259.047 252.75 258.891C252.812 258.734 252.844 258.609 252.844 258.516C252.844 258.453 252.828 258.422 252.797 258.422C252.734 258.422 252.656 258.5 252.562 258.656C252.469 258.812 252.391 258.969 252.328 259.125C252.266 259.281 252.234 259.406 252.234 259.5C252.234 259.562 252.25 259.594 252.281 259.594ZM253.125 260.25C253.188 260.25 253.328 260 253.547 259.5C253.891 258.594 254.125 257.828 254.25 257.203V256.922C254.219 256.922 254.062 257.234 253.781 257.859C253.344 259.109 253.125 259.891 253.125 260.203V260.25ZM225.047 260.484C225.078 260.484 225.188 260.328 225.375 260.016C225.562 259.672 225.781 259.234 226.031 258.703C226.312 258.141 226.531 257.625 226.688 257.156C226.875 256.688 226.969 256.391 226.969 256.266V256.219C226.875 256.219 226.562 256.828 226.031 258.047C225.375 259.359 225.047 260.156 225.047 260.438V260.484ZM252.188 262.781C252.25 262.781 252.375 262.609 252.562 262.266C252.844 261.672 252.984 261.297 252.984 261.141C252.984 261.078 252.969 261.047 252.938 261.047C252.875 261.047 252.75 261.234 252.562 261.609C252.406 261.828 252.297 262.047 252.234 262.266C252.172 262.484 252.141 262.641 252.141 262.734C252.141 262.766 252.156 262.781 252.188 262.781ZM212.625 263.859C212.656 263.828 212.688 263.797 212.719 263.766C212.75 263.703 212.766 263.594 212.766 263.438C212.766 263.344 212.734 263.25 212.672 263.156C212.641 263.062 212.594 263.016 212.531 263.016C212.5 263.016 212.484 263.141 212.484 263.391C212.516 263.703 212.562 263.859 212.625 263.859ZM214.359 265.5C214.516 265.5 216.609 261.812 220.641 254.438C221.953 251.969 223.453 249.281 225.141 246.375C225.953 245 226.516 244 226.828 243.375C227.172 242.75 227.344 242.297 227.344 242.016C227.344 241.797 227.25 241.594 227.062 241.406C226.75 241.031 226.375 240.844 225.938 240.844C225.469 240.844 224.844 241.141 224.062 241.734C222.312 243.172 220.547 245.859 218.766 249.797C217.016 253.734 215.672 257.953 214.734 262.453C214.391 264.172 214.219 265.141 214.219 265.359C214.219 265.453 214.266 265.5 214.359 265.5ZM204.984 267.797C205.078 267.797 205.219 267.109 205.406 265.734C205.562 264.922 205.75 264 205.969 262.969C206.188 261.906 206.406 260.984 206.625 260.203C207.219 258.141 207.922 255.938 208.734 253.594C209.578 251.25 210.406 249.266 211.219 247.641C211.75 246.391 212.016 245.688 212.016 245.531L211.922 245.672C211.016 246.891 210.016 248.906 208.922 251.719C207.859 254.531 206.922 257.438 206.109 260.438C205.297 263.438 204.891 265.672 204.891 267.141C204.891 267.234 204.891 267.375 204.891 267.562C204.891 267.719 204.922 267.797 204.984 267.797ZM230.156 269.156C230.188 269.156 230.203 269.094 230.203 268.969C230.234 268.812 230.25 268.625 230.25 268.406C230.219 268.188 230.188 268.031 230.156 267.938C230.125 267.812 230.094 267.75 230.062 267.75C230.031 267.75 230.016 267.984 230.016 268.453C230.078 268.922 230.125 269.156 230.156 269.156ZM206.438 270.844C206.531 270.844 206.656 270.125 206.812 268.688L207.281 264.938C207.938 260.906 209.094 256.766 210.75 252.516C211.969 249.266 213.281 246.5 214.688 244.219L215.391 243.094C216.078 241.969 216.422 241.328 216.422 241.172V241.125L216.281 241.172C215.812 241.516 215.016 242.641 213.891 244.547C211.297 248.891 209.234 254.031 207.703 259.969C206.766 263.688 206.297 266.672 206.297 268.922C206.297 269.266 206.312 269.5 206.344 269.625C206.344 270.375 206.375 270.781 206.438 270.844ZM230.156 274.875C230.188 274.875 230.203 274.828 230.203 274.734L230.109 272.109C230.109 271.266 230.047 270.844 229.922 270.844L229.969 272.812C229.969 272.969 229.984 273.109 230.016 273.234C230.078 274.328 230.125 274.875 230.156 274.875ZM239.156 285.984C238.781 285.984 238.281 285.891 237.656 285.703C237.062 285.516 236.469 285.281 235.875 285C234.438 284.375 233.344 284.062 232.594 284.062C231.25 284.062 229.594 283.203 227.625 281.484C226.344 280.266 225.609 278.156 225.422 275.156L225.281 272.906C224.875 273.594 224.469 274.266 224.062 274.922C223.688 275.547 223.188 276.25 222.562 277.031C221.969 277.781 221.406 278.453 220.875 279.047C218.719 281.391 216.625 282.562 214.594 282.562C213.156 282.562 211.719 281.938 210.281 280.688C209.688 280.094 208.969 279.797 208.125 279.797C207.125 279.797 205.984 279.281 204.703 278.25C203.422 277.188 202.391 275.922 201.609 274.453C201.141 273.609 200.859 272.641 200.766 271.547C200.609 270.016 200.531 268.484 200.531 266.953C200.531 265.359 200.734 263.625 201.141 261.75C202.172 257.062 203.719 252.562 205.781 248.25C207.844 243.906 210.094 240.422 212.531 237.797C215.781 234.453 218.641 232.781 221.109 232.781C222.578 232.781 223.875 233.359 225 234.516C225.375 234.859 225.828 235.312 226.359 235.875C226.922 236.406 227.469 236.938 228 237.469C228.531 237.969 228.938 238.344 229.219 238.594C229.531 238.812 229.766 238.922 229.922 238.922C230.078 238.922 230.234 238.828 230.391 238.641C230.734 238.391 231.094 238.266 231.469 238.266C231.719 238.266 231.953 238.328 232.172 238.453C232.391 238.547 232.5 238.703 232.5 238.922C232.625 239.922 232.734 240.422 232.828 240.422C232.859 240.422 232.891 240.391 232.922 240.328C232.984 240.266 233.031 240.203 233.062 240.141C233.156 239.953 233.266 239.859 233.391 239.859C233.484 239.859 233.547 239.891 233.578 239.953C233.609 240.016 233.656 240.062 233.719 240.094C233.938 240.281 234.203 240.469 234.516 240.656C234.953 240.938 235.219 241.438 235.312 242.156C235.406 242.844 235.656 243.391 236.062 243.797C236.188 243.922 236.281 244.109 236.344 244.359C236.438 244.578 236.484 245 236.484 245.625C236.484 246.812 236.312 249.109 235.969 252.516C235.312 259.578 234.984 265.297 234.984 269.672C234.984 270.828 235.016 271.859 235.078 272.766C235.141 274.234 235.25 275.172 235.406 275.578C235.5 275.797 235.609 275.906 235.734 275.906L237.281 274.688C238.344 273.875 239.719 272.562 241.406 270.75C243.125 268.938 245 266.547 247.031 263.578C249.094 260.609 251.141 256.969 253.172 252.656C253.703 252.656 254.016 252.953 254.109 253.547L253.969 254.391V254.438L254.297 254.016C254.516 253.734 254.672 253.594 254.766 253.594C254.828 253.594 254.875 253.672 254.906 253.828C254.938 253.953 255 254.016 255.094 254.016C255.125 254.016 255.156 254 255.188 253.969C255.219 253.938 255.266 253.922 255.328 253.922C255.609 253.922 255.891 254.25 256.172 254.906C256.484 255.531 256.641 256.25 256.641 257.062C256.641 259.562 255.766 263.141 254.016 267.797C252.297 272.453 250.328 276.453 248.109 279.797C245.109 283.922 242.125 285.984 239.156 285.984ZM255.375 289.781C254.906 289.781 254.594 289.656 254.438 289.406C254.312 289.188 254.094 289.078 253.781 289.078L253.312 289.125C252.906 289.188 252.547 289.219 252.234 289.219C251.797 289.219 251.266 289.078 250.641 288.797C248.766 288.047 247.766 286 247.641 282.656L247.594 280.266C247.594 277.578 248.078 273.922 249.047 269.297C249.984 264.641 251.797 257.047 254.484 246.516C256.391 239.016 257.953 234.969 259.172 234.375C259.422 234.281 259.656 234.234 259.875 234.234C260.344 234.234 260.625 234.453 260.719 234.891C260.719 235.234 260.828 235.406 261.047 235.406C261.266 235.406 261.391 235.484 261.422 235.641C261.453 235.797 261.531 235.875 261.656 235.875L261.844 235.828C262.094 235.828 262.344 235.922 262.594 236.109C262.844 236.297 263.094 236.391 263.344 236.391C263.625 236.391 263.891 236.531 264.141 236.812C264.797 237.469 265.172 238.141 265.266 238.828C265.266 240.078 264.469 243.578 262.875 249.328C262 252.516 261.219 255.562 260.531 258.469C259.875 261.344 259.547 263.062 259.547 263.625C259.547 263.688 259.562 263.719 259.594 263.719C259.719 263.719 259.906 263.406 260.156 262.781C260.438 262.125 261.094 260.781 262.125 258.75C264.719 253.594 266.688 249.797 268.031 247.359C274.188 236.672 279.188 231.328 283.031 231.328C283.656 231.328 284.172 231.453 284.578 231.703C285.016 231.953 285.609 232.469 286.359 233.25C287.109 234.031 287.781 234.594 288.375 234.938C288.875 235.188 289.375 235.641 289.875 236.297C290.594 237.109 290.953 238.703 290.953 241.078C290.953 242.484 290.828 244.266 290.578 246.422C290.109 251.203 289.875 255.719 289.875 259.969C289.875 263.75 290.094 267.328 290.531 270.703C290.781 272.391 291 273.359 291.188 273.609C291.344 273.609 291.797 272.969 292.547 271.688C293.328 270.406 294.219 268.859 295.219 267.047C296.25 265.203 297.266 263.375 298.266 261.562L300.562 257.391C301.875 255.078 302.672 253.922 302.953 253.922C303.047 253.922 303.094 254 303.094 254.156C303.094 254.281 303.109 254.359 303.141 254.391C303.203 254.422 303.312 254.438 303.469 254.438L303.844 254.391C304.094 254.391 304.234 254.594 304.266 255C304.266 255.969 303.562 258.078 302.156 261.328C301.344 263.266 300.391 265.422 299.297 267.797C298.234 270.172 297.203 272.297 296.203 274.172C295.203 276.016 294.422 277.141 293.859 277.547C293.422 277.797 292.922 277.922 292.359 277.922C291.703 277.922 291.047 277.75 290.391 277.406C289.766 277.062 289.266 276.891 288.891 276.891C288.516 276.891 287.906 276.656 287.062 276.188C286.25 275.719 285.531 275.172 284.906 274.547C282.406 272.172 281.156 268.328 281.156 263.016C281.156 260.734 281.297 258.344 281.578 255.844C281.859 253.312 282.391 249.578 283.172 244.641C283.391 243.328 283.5 242.375 283.5 241.781L283.453 241.734C283.359 241.734 282.953 242.141 282.234 242.953C281.516 243.734 280.703 244.688 279.797 245.812C278.891 246.938 278.062 248.047 277.312 249.141C272.438 255.641 267.453 265.562 262.359 278.906C261.797 280.375 261.328 281.547 260.953 282.422C260.609 283.266 260.312 283.891 260.062 284.297C259.844 284.703 259.625 284.969 259.406 285.094C259.188 285.219 258.906 285.297 258.562 285.328C258.25 285.328 257.922 285.344 257.578 285.375C257.422 286.031 257.266 286.672 257.109 287.297C256.953 287.891 256.797 288.391 256.641 288.797C256.484 289.203 256.359 289.453 256.266 289.547C256.016 289.703 255.719 289.781 255.375 289.781ZM252.094 285.656V284.484C252.094 284.172 252.062 283.859 252 283.547L251.953 283.312C251.922 283.312 251.906 283.406 251.906 283.594L251.953 284.484C252.016 285.266 252.062 285.656 252.094 285.656ZM253.266 284.156C253.422 284.062 253.5 283.922 253.5 283.734C253.5 283.547 253.422 283.453 253.266 283.453C253.203 283.453 253.156 283.484 253.125 283.547C253.094 283.609 253.078 283.703 253.078 283.828C253.078 284.047 253.125 284.156 253.219 284.156H253.266ZM253.5 278.719C253.594 278.719 253.875 276.938 254.344 273.375C254.531 271.875 254.766 270.297 255.047 268.641C255.328 266.953 255.578 265.578 255.797 264.516C256.266 262.203 256.922 259.297 257.766 255.797C258.641 252.297 259.391 249.5 260.016 247.406C260.516 245.75 260.766 244.828 260.766 244.641L260.719 244.594L260.625 244.734C260.219 245.297 259.203 248.797 257.578 255.234C256.172 260.672 255.125 265.672 254.438 270.234C253.969 273.203 253.672 275.641 253.547 277.547L253.5 278.719ZM253.312 270.281C253.312 270.25 253.328 270.234 253.359 270.234C253.391 270.203 253.406 270.125 253.406 270C253.375 269.781 253.328 269.672 253.266 269.672C253.234 269.672 253.219 269.75 253.219 269.906C253.25 270.156 253.281 270.281 253.312 270.281ZM253.5 269.297C253.562 269.234 253.594 269.141 253.594 269.016C253.562 268.953 253.547 268.906 253.547 268.875C253.547 268.812 253.531 268.766 253.5 268.734C253.5 268.672 253.469 268.641 253.406 268.641V268.922C253.406 269.172 253.438 269.297 253.5 269.297ZM253.688 267.797C253.75 267.797 254.172 265.953 254.953 262.266C255.266 260.891 255.422 260.031 255.422 259.688L255.375 259.641C255.312 259.734 255.203 260.109 255.047 260.766C254.672 262.266 254.312 263.906 253.969 265.688C253.781 266.719 253.688 267.422 253.688 267.797ZM285.234 265.828L285.281 265.781C285.344 265.531 285.375 265.062 285.375 264.375V262.594C285.375 261.5 285.406 260.234 285.469 258.797L285.703 253.594L285.656 253.547C285.25 256.578 285.047 259.844 285.047 263.344C285.047 264.969 285.109 265.797 285.234 265.828ZM285.844 252.984L285.891 252.891C285.922 252.828 285.938 252.734 285.938 252.609L285.797 252.188C285.766 252.188 285.75 252.234 285.75 252.328V252.609C285.781 252.859 285.812 252.984 285.844 252.984ZM309.141 252.984C309.203 252.984 309.391 252.672 309.703 252.047C310.047 251.422 310.453 250.609 310.922 249.609C311.422 248.578 311.922 247.578 312.422 246.609C312.922 245.609 313.312 244.891 313.594 244.453C313.875 244.016 314.234 243.484 314.672 242.859C315.109 242.234 315.547 241.641 315.984 241.078C316.422 240.516 316.875 239.938 317.344 239.344C316.906 239.75 316.469 240.172 316.031 240.609C315.625 241.016 315.172 241.547 314.672 242.203C314.172 242.859 313.719 243.5 313.312 244.125C312.812 244.969 312.234 246.031 311.578 247.312C310.953 248.594 310.391 249.797 309.891 250.922C309.391 252.047 309.141 252.719 309.141 252.938V252.984ZM323.25 254.672C323.344 254.672 323.625 254.172 324.094 253.172C324.625 252.047 324.891 251.344 324.891 251.062V251.016C324.859 251.016 324.766 251.156 324.609 251.438C324.266 252 323.891 252.812 323.484 253.875C323.328 254.281 323.25 254.547 323.25 254.672ZM311.906 255.328C312 255.328 312.234 254.844 312.609 253.875C313.016 252.875 313.219 252.234 313.219 251.953C313.125 251.953 312.875 252.438 312.469 253.406C312.094 254.375 311.906 255 311.906 255.281V255.328ZM308.391 255.516C308.453 255.516 308.578 255.281 308.766 254.812C308.859 254.562 308.953 254.312 309.047 254.062C309.141 253.781 309.188 253.594 309.188 253.5L309.141 253.453C309.078 253.453 308.984 253.578 308.859 253.828C308.734 254.078 308.609 254.359 308.484 254.672C308.391 254.984 308.344 255.219 308.344 255.375C308.344 255.469 308.359 255.516 308.391 255.516ZM350.109 257.953C350.172 257.953 350.25 257.891 350.344 257.766C350.438 257.609 350.5 257.469 350.531 257.344C350.594 257.188 350.625 257.047 350.625 256.922C350.625 256.828 350.609 256.781 350.578 256.781C350.547 256.781 350.469 256.875 350.344 257.062C350.25 257.219 350.172 257.375 350.109 257.531C350.047 257.656 350.016 257.766 350.016 257.859C350.016 257.922 350.047 257.953 350.109 257.953ZM310.875 258.797C310.906 258.797 311 258.594 311.156 258.188L311.719 256.406L311.766 255.938C311.734 255.938 311.641 256.141 311.484 256.547C311.359 256.828 311.234 257.141 311.109 257.484C311.016 257.828 310.953 258.125 310.922 258.375C310.891 258.594 310.875 258.734 310.875 258.797ZM349.5 259.594C349.562 259.594 349.641 259.516 349.734 259.359C349.859 259.203 349.938 259.047 349.969 258.891C350.031 258.734 350.062 258.609 350.062 258.516C350.062 258.453 350.047 258.422 350.016 258.422C349.953 258.422 349.875 258.5 349.781 258.656C349.688 258.812 349.609 258.969 349.547 259.125C349.484 259.281 349.453 259.406 349.453 259.5C349.453 259.562 349.469 259.594 349.5 259.594ZM350.344 260.25C350.406 260.25 350.547 260 350.766 259.5C351.109 258.594 351.344 257.828 351.469 257.203V256.922C351.438 256.922 351.281 257.234 351 257.859C350.562 259.109 350.344 259.891 350.344 260.203V260.25ZM322.266 260.484C322.297 260.484 322.406 260.328 322.594 260.016C322.781 259.672 323 259.234 323.25 258.703C323.531 258.141 323.75 257.625 323.906 257.156C324.094 256.688 324.188 256.391 324.188 256.266V256.219C324.094 256.219 323.781 256.828 323.25 258.047C322.594 259.359 322.266 260.156 322.266 260.438V260.484ZM349.406 262.781C349.469 262.781 349.594 262.609 349.781 262.266C350.062 261.672 350.203 261.297 350.203 261.141C350.203 261.078 350.188 261.047 350.156 261.047C350.094 261.047 349.969 261.234 349.781 261.609C349.625 261.828 349.516 262.047 349.453 262.266C349.391 262.484 349.359 262.641 349.359 262.734C349.359 262.766 349.375 262.781 349.406 262.781ZM309.844 263.859C309.875 263.828 309.906 263.797 309.938 263.766C309.969 263.703 309.984 263.594 309.984 263.438C309.984 263.344 309.953 263.25 309.891 263.156C309.859 263.062 309.812 263.016 309.75 263.016C309.719 263.016 309.703 263.141 309.703 263.391C309.734 263.703 309.781 263.859 309.844 263.859ZM311.578 265.5C311.734 265.5 313.828 261.812 317.859 254.438C319.172 251.969 320.672 249.281 322.359 246.375C323.172 245 323.734 244 324.047 243.375C324.391 242.75 324.562 242.297 324.562 242.016C324.562 241.797 324.469 241.594 324.281 241.406C323.969 241.031 323.594 240.844 323.156 240.844C322.688 240.844 322.062 241.141 321.281 241.734C319.531 243.172 317.766 245.859 315.984 249.797C314.234 253.734 312.891 257.953 311.953 262.453C311.609 264.172 311.438 265.141 311.438 265.359C311.438 265.453 311.484 265.5 311.578 265.5ZM302.203 267.797C302.297 267.797 302.438 267.109 302.625 265.734C302.781 264.922 302.969 264 303.188 262.969C303.406 261.906 303.625 260.984 303.844 260.203C304.438 258.141 305.141 255.938 305.953 253.594C306.797 251.25 307.625 249.266 308.438 247.641C308.969 246.391 309.234 245.688 309.234 245.531L309.141 245.672C308.234 246.891 307.234 248.906 306.141 251.719C305.078 254.531 304.141 257.438 303.328 260.438C302.516 263.438 302.109 265.672 302.109 267.141C302.109 267.234 302.109 267.375 302.109 267.562C302.109 267.719 302.141 267.797 302.203 267.797ZM327.375 269.156C327.406 269.156 327.422 269.094 327.422 268.969C327.453 268.812 327.469 268.625 327.469 268.406C327.438 268.188 327.406 268.031 327.375 267.938C327.344 267.812 327.312 267.75 327.281 267.75C327.25 267.75 327.234 267.984 327.234 268.453C327.297 268.922 327.344 269.156 327.375 269.156ZM303.656 270.844C303.75 270.844 303.875 270.125 304.031 268.688L304.5 264.938C305.156 260.906 306.312 256.766 307.969 252.516C309.188 249.266 310.5 246.5 311.906 244.219L312.609 243.094C313.297 241.969 313.641 241.328 313.641 241.172V241.125L313.5 241.172C313.031 241.516 312.234 242.641 311.109 244.547C308.516 248.891 306.453 254.031 304.922 259.969C303.984 263.688 303.516 266.672 303.516 268.922C303.516 269.266 303.531 269.5 303.562 269.625C303.562 270.375 303.594 270.781 303.656 270.844ZM327.375 274.875C327.406 274.875 327.422 274.828 327.422 274.734L327.328 272.109C327.328 271.266 327.266 270.844 327.141 270.844L327.188 272.812C327.188 272.969 327.203 273.109 327.234 273.234C327.297 274.328 327.344 274.875 327.375 274.875ZM336.375 285.984C336 285.984 335.5 285.891 334.875 285.703C334.281 285.516 333.688 285.281 333.094 285C331.656 284.375 330.562 284.062 329.812 284.062C328.469 284.062 326.812 283.203 324.844 281.484C323.562 280.266 322.828 278.156 322.641 275.156L322.5 272.906C322.094 273.594 321.688 274.266 321.281 274.922C320.906 275.547 320.406 276.25 319.781 277.031C319.188 277.781 318.625 278.453 318.094 279.047C315.938 281.391 313.844 282.562 311.812 282.562C310.375 282.562 308.938 281.938 307.5 280.688C306.906 280.094 306.188 279.797 305.344 279.797C304.344 279.797 303.203 279.281 301.922 278.25C300.641 277.188 299.609 275.922 298.828 274.453C298.359 273.609 298.078 272.641 297.984 271.547C297.828 270.016 297.75 268.484 297.75 266.953C297.75 265.359 297.953 263.625 298.359 261.75C299.391 257.062 300.938 252.562 303 248.25C305.062 243.906 307.312 240.422 309.75 237.797C313 234.453 315.859 232.781 318.328 232.781C319.797 232.781 321.094 233.359 322.219 234.516C322.594 234.859 323.047 235.312 323.578 235.875C324.141 236.406 324.688 236.938 325.219 237.469C325.75 237.969 326.156 238.344 326.438 238.594C326.75 238.812 326.984 238.922 327.141 238.922C327.297 238.922 327.453 238.828 327.609 238.641C327.953 238.391 328.312 238.266 328.688 238.266C328.938 238.266 329.172 238.328 329.391 238.453C329.609 238.547 329.719 238.703 329.719 238.922C329.844 239.922 329.953 240.422 330.047 240.422C330.078 240.422 330.109 240.391 330.141 240.328C330.203 240.266 330.25 240.203 330.281 240.141C330.375 239.953 330.484 239.859 330.609 239.859C330.703 239.859 330.766 239.891 330.797 239.953C330.828 240.016 330.875 240.062 330.938 240.094C331.156 240.281 331.422 240.469 331.734 240.656C332.172 240.938 332.438 241.438 332.531 242.156C332.625 242.844 332.875 243.391 333.281 243.797C333.406 243.922 333.5 244.109 333.562 244.359C333.656 244.578 333.703 245 333.703 245.625C333.703 246.812 333.531 249.109 333.188 252.516C332.531 259.578 332.203 265.297 332.203 269.672C332.203 270.828 332.234 271.859 332.297 272.766C332.359 274.234 332.469 275.172 332.625 275.578C332.719 275.797 332.828 275.906 332.953 275.906L334.5 274.688C335.562 273.875 336.938 272.562 338.625 270.75C340.344 268.938 342.219 266.547 344.25 263.578C346.312 260.609 348.359 256.969 350.391 252.656C350.922 252.656 351.234 252.953 351.328 253.547L351.188 254.391V254.438L351.516 254.016C351.734 253.734 351.891 253.594 351.984 253.594C352.047 253.594 352.094 253.672 352.125 253.828C352.156 253.953 352.219 254.016 352.312 254.016C352.344 254.016 352.375 254 352.406 253.969C352.438 253.938 352.484 253.922 352.547 253.922C352.828 253.922 353.109 254.25 353.391 254.906C353.703 255.531 353.859 256.25 353.859 257.062C353.859 259.562 352.984 263.141 351.234 267.797C349.516 272.453 347.547 276.453 345.328 279.797C342.328 283.922 339.344 285.984 336.375 285.984ZM358.969 248.062C358.969 248.094 359.078 247.938 359.297 247.594L362.578 241.922C362.516 241.922 362.312 242.125 361.969 242.531C361.469 243.125 360.906 243.969 360.281 245.062C359.688 246.156 359.281 247.031 359.062 247.688L358.969 248.062ZM360.516 251.344C360.578 251.344 360.719 251.047 360.938 250.453L361.172 249.938C361.141 249.938 361.031 250.062 360.844 250.312C360.594 250.719 360.469 251 360.469 251.156C360.469 251.281 360.484 251.344 360.516 251.344ZM354.703 251.531C354.766 251.531 355.266 250.484 356.203 248.391C357.297 245.953 358.016 244.438 358.359 243.844C358.609 243.344 358.734 243.047 358.734 242.953L358.547 243.047C358.266 243.328 357.562 244.719 356.438 247.219C355.312 249.688 354.734 251.125 354.703 251.531ZM373.688 252.234C373.781 252.234 374.297 251.328 375.234 249.516C376.203 247.672 376.703 246.641 376.734 246.422C376.672 246.422 376.312 247.031 375.656 248.25L374.062 251.297C373.781 251.797 373.641 252.094 373.641 252.188L373.688 252.234ZM372.656 254.297C372.75 254.297 372.938 254 373.219 253.406C373.406 252.969 373.5 252.688 373.5 252.562C373.5 252.531 373.484 252.516 373.453 252.516C373.391 252.516 373.219 252.812 372.938 253.406C372.719 253.812 372.609 254.094 372.609 254.25L372.656 254.297ZM368.297 264.703C368.359 264.703 368.609 264.328 369.047 263.578C369.516 262.797 370.047 261.859 370.641 260.766C372.203 257.891 373.578 255.266 374.766 252.891C375.953 250.484 376.578 249.109 376.641 248.766C376.516 248.766 376.266 249.156 375.891 249.938L368.766 263.672C368.453 264.297 368.297 264.641 368.297 264.703ZM351 268.875C351.094 268.875 351.359 267.953 351.797 266.109C352.016 265.141 352.312 263.984 352.688 262.641C353.906 258.203 355.312 254 356.906 250.031C358 247.219 359 245.047 359.906 243.516C360.5 242.547 360.797 242 360.797 241.875C360.734 241.875 360.5 242.125 360.094 242.625C358.938 244.156 357.578 246.969 356.016 251.062C354.484 255.156 353.109 259.656 351.891 264.562C351.297 266.906 351 268.328 351 268.828V268.875ZM356.859 271.078C356.922 271.078 357.438 270.422 358.406 269.109C360.875 265.641 363.422 261.797 366.047 257.578C367.359 255.453 368.016 254.25 368.016 253.969C368.016 253.781 367.922 253.641 367.734 253.547C367.547 253.516 367.453 253.219 367.453 252.656L367.547 250.828C367.547 249.266 367.406 247.672 367.125 246.047C367 245.172 366.844 244.734 366.656 244.734C366.406 244.734 365.984 245.062 365.391 245.719C364.797 246.344 364.234 247.109 363.703 248.016C363.047 249.141 362.312 250.734 361.5 252.797C360.688 254.859 359.953 256.969 359.297 259.125C358.672 261.25 358.094 263.547 357.562 266.016C357.031 268.484 356.766 270.078 356.766 270.797C356.766 270.984 356.797 271.078 356.859 271.078ZM373.922 279.281C373.984 279.281 374.234 278.703 374.672 277.547C375.047 276.547 375.406 275.359 375.75 273.984C376.188 272.078 376.406 270.891 376.406 270.422V270.281C376.344 270.281 376.266 270.422 376.172 270.703C376.078 270.984 375.859 271.781 375.516 273.094L373.969 278.953L373.922 279.281ZM379.969 282.516C380 282.516 380.047 282.438 380.109 282.281C380.203 282.125 380.266 281.922 380.297 281.672C380.359 281.422 380.391 281.172 380.391 280.922C380.391 280.484 380.375 280.266 380.344 280.266C380.312 280.266 380.25 280.438 380.156 280.781C380 281.406 379.922 281.859 379.922 282.141C379.922 282.391 379.938 282.516 379.969 282.516ZM374.156 282.797C374.25 282.797 374.672 281.781 375.422 279.75C376.672 276.344 377.422 273.422 377.672 270.984L377.719 270.281C377.719 270.188 377.703 270.141 377.672 270.141C377.641 270.141 377.453 270.797 377.109 272.109C376.766 273.609 376.125 275.891 375.188 278.953C374.5 281.234 374.156 282.5 374.156 282.75V282.797ZM375.234 284.766C375.359 284.734 375.703 284.094 376.266 282.844C376.797 281.688 377.203 280.484 377.484 279.234C377.672 278.453 377.766 277.938 377.766 277.688L377.719 277.547L377.672 277.594C377.578 277.75 376.984 279.422 375.891 282.609C375.453 283.953 375.234 284.672 375.234 284.766ZM352.078 313.406C350.578 313.406 349.406 313.391 348.562 313.359C347.719 313.328 347.031 313.266 346.5 313.172C345.969 313.078 345.422 312.938 344.859 312.75C342.109 311.812 340.734 310.797 340.734 309.703C340.734 309.141 340.844 308.719 341.062 308.438C341.281 308.188 341.75 308 342.469 307.875C343.156 307.781 344.203 307.719 345.609 307.688C346.828 307.656 347.75 307.609 348.375 307.547C348.969 307.516 349.469 307.422 349.875 307.266C354.656 305.453 359.781 298.938 365.25 287.719C366.531 285.125 367.906 281.938 369.375 278.156C370.844 274.344 372.125 270.781 373.219 267.469C374.344 264.156 374.906 262.078 374.906 261.234C374.906 261.141 374.891 261.078 374.859 261.047C374.859 261.016 374.844 261 374.812 261C374.656 261 374.016 262.203 372.891 264.609C371.016 268.672 369.312 271.938 367.781 274.406C366.281 276.875 364.672 279.062 362.953 280.969C361.734 282.344 360.688 283.297 359.812 283.828C358.969 284.328 358.031 284.578 357 284.578C356.406 284.578 355.922 284.531 355.547 284.438C355.203 284.312 354.797 284.062 354.328 283.688C353.578 283.156 353 282.594 352.594 282C352.219 281.375 351.812 281.062 351.375 281.062C350.344 281.062 349.203 280.266 347.953 278.672C347.047 277.578 346.438 276.562 346.125 275.625C345.812 274.688 345.656 273.453 345.656 271.922C345.656 269.828 346.031 267.359 346.781 264.516C347.5 261.672 348.781 257.703 350.625 252.609C352.156 248.297 353.453 245.047 354.516 242.859C355.609 240.641 356.797 238.828 358.078 237.422C359.828 235.359 361.5 234.328 363.094 234.328C364.656 234.328 366.156 235.344 367.594 237.375C368.375 238.531 369.047 239.359 369.609 239.859C370.172 240.328 370.734 241.031 371.297 241.969C371.859 242.875 372.281 243.781 372.562 244.688L372.984 246.141L375.141 242.766C375.734 241.828 376.234 240.984 376.641 240.234C377.047 239.453 377.25 238.984 377.25 238.828C377.25 238.484 377.344 238.188 377.531 237.938C377.75 237.656 377.984 237.516 378.234 237.516C378.328 237.516 378.531 237.672 378.844 237.984C379.188 238.266 380.094 239.203 381.562 240.797L381.75 243.375C381.875 245 382.078 247.219 382.359 250.031C382.766 254.625 382.969 259.547 382.969 264.797C382.969 271.016 382.688 276.297 382.125 280.641C381.469 284.453 380.047 288.547 377.859 292.922C375.703 297.328 373.109 301.312 370.078 304.875C367.641 307.719 365.094 309.891 362.438 311.391C360.938 312.266 359.578 312.812 358.359 313.031C357.172 313.281 355.078 313.406 352.078 313.406ZM396.797 241.594C396.891 241.594 397.406 240.953 398.344 239.672C399.188 238.516 399.609 237.828 399.609 237.609V237.562C399.516 237.562 399.328 237.734 399.047 238.078C398.797 238.391 398.5 238.797 398.156 239.297C397.812 239.766 397.5 240.25 397.219 240.75C396.938 241.219 396.797 241.5 396.797 241.594ZM400.266 241.875C400.422 241.875 401.328 240.781 402.984 238.594C403.453 238.031 403.688 237.703 403.688 237.609H403.641C403.609 237.609 403.453 237.703 403.172 237.891C402.734 238.234 402.219 238.781 401.625 239.531C400.906 240.5 400.438 241.266 400.219 241.828L400.266 241.875ZM402.188 244.734C402.219 244.734 402.266 244.719 402.328 244.688C402.422 244.625 402.531 244.516 402.656 244.359C402.781 244.172 402.891 243.969 402.984 243.75C403.078 243.531 403.125 243.391 403.125 243.328L403.078 243.281C402.984 243.281 402.844 243.422 402.656 243.703C402.312 244.172 402.141 244.5 402.141 244.688C402.141 244.719 402.156 244.734 402.188 244.734ZM396.844 244.781C396.875 244.781 396.969 244.672 397.125 244.453C397.5 243.922 398.094 242.953 398.906 241.547C399.844 239.984 400.828 238.469 401.859 237L400.641 238.266C400.016 238.953 399.297 239.953 398.484 241.266C397.703 242.578 397.156 243.75 396.844 244.781ZM408.75 253.547L408.891 253.5C409.266 253.125 409.625 252.688 409.969 252.188C410.312 251.656 410.484 251.344 410.484 251.25C410.391 251.25 410 251.688 409.312 252.562C408.938 253.125 408.75 253.453 408.75 253.547ZM399.891 255.328C400.172 255.328 401.375 254.484 403.5 252.797C405.375 251.422 406.719 250.344 407.531 249.562C408.375 248.781 409.062 247.953 409.594 247.078C410.094 246.328 410.547 245.328 410.953 244.078C411.391 242.797 411.609 241.875 411.609 241.312C411.609 240.875 411.172 240.656 410.297 240.656C409.109 240.656 408.125 240.875 407.344 241.312C404.469 243.188 401.969 247.656 399.844 254.719L399.75 255.141C399.75 255.234 399.797 255.297 399.891 255.328ZM407.062 256.734L407.203 256.688C407.391 256.594 407.672 256.375 408.047 256.031C408.422 255.688 408.797 255.328 409.172 254.953C409.547 254.547 409.906 254.109 410.25 253.641C410.594 253.172 410.844 252.766 411 252.422C411.156 252.078 411.234 251.875 411.234 251.812V251.766C411.172 251.766 410.875 252.109 410.344 252.797C409.656 253.766 408.844 254.719 407.906 255.656C407.344 256.281 407.062 256.641 407.062 256.734ZM407.016 258.703C407.078 258.703 407.234 258.625 407.484 258.469C407.734 258.312 408.031 258.078 408.375 257.766C408.75 257.453 409.078 257.125 409.359 256.781C409.766 256.312 409.969 256.047 409.969 255.984L409.922 255.938C409.766 255.938 409.094 256.5 407.906 257.625C407.312 258.25 407.016 258.594 407.016 258.656V258.703ZM407.484 283.5C406.016 283.5 404.719 283.312 403.594 282.938C402.594 282.531 401.688 282.047 400.875 281.484C400.219 280.984 399.406 280.531 398.438 280.125C396.812 279.469 395.25 278.406 393.75 276.938C391.219 274.469 389.641 271.438 389.016 267.844C388.734 266.344 388.594 264.5 388.594 262.312L388.641 260.25C388.734 254.719 389.688 249.391 391.5 244.266C393.719 237.734 396.734 233.406 400.547 231.281C402.266 230.312 403.891 229.828 405.422 229.828C408.203 229.828 410.5 231.453 412.312 234.703C412.875 235.859 413.375 236.625 413.812 237C414.344 237.625 414.875 238.641 415.406 240.047C415.938 241.453 416.203 242.516 416.203 243.234C416.203 243.453 416.172 243.609 416.109 243.703C415.922 244.047 415.734 245.453 415.547 247.922C415.297 250.922 414.891 253.375 414.328 255.281C412.359 261.781 408.141 265.188 401.672 265.5L398.766 265.734L399.047 268.828C399.078 269.859 399.188 270.906 399.375 271.969C399.781 274.062 401.422 275.109 404.297 275.109C408.422 275.109 413.438 272.328 419.344 266.766C423.094 263.203 426.547 259.438 429.703 255.469C430.172 254.875 430.422 254.578 430.453 254.578C430.672 254.766 430.781 255.016 430.781 255.328C430.781 255.672 430.656 256.016 430.406 256.359L430.312 256.5C430.375 256.5 430.516 256.391 430.734 256.172C430.984 255.922 431.156 255.797 431.25 255.797C431.312 255.797 431.344 255.828 431.344 255.891C431.344 256.141 431 256.812 430.312 257.906C429.781 258.75 429.516 259.234 429.516 259.359V259.406H429.562C429.781 259.25 430.203 258.656 430.828 257.625C431.453 256.562 431.828 256.031 431.953 256.031C432.047 256.031 432.156 256.172 432.281 256.453C432.438 256.734 432.562 257.062 432.656 257.438C432.781 257.781 432.844 258.078 432.844 258.328C432.781 259.266 432.078 260.906 430.734 263.25C429.391 265.562 427.594 268.219 425.344 271.219C420.406 277.875 415.625 281.828 411 283.078C409.906 283.359 408.734 283.5 407.484 283.5ZM436.922 283.641C436.391 283.641 435.922 283.469 435.516 283.125C435.172 282.75 434.781 282.562 434.344 282.562C434.031 282.562 433.641 282.656 433.172 282.844C432.922 282.969 432.688 283.031 432.469 283.031C432.219 283.031 431.656 282.812 430.781 282.375C429.938 281.938 429.344 281.344 429 280.594C428.656 279.844 428.469 278.609 428.438 276.891C428.438 273.828 428.719 269.734 429.281 264.609C429.844 259.453 430.5 254.453 431.25 249.609C432 244.766 432.688 241.297 433.312 239.203C433.875 237.359 434.359 236.094 434.766 235.406C435.203 234.719 435.734 234.375 436.359 234.375L436.641 234.422C437.016 234.422 437.266 234.484 437.391 234.609C437.547 234.703 437.641 234.859 437.672 235.078C437.703 235.297 437.75 235.484 437.812 235.641C437.906 235.766 438 235.859 438.094 235.922C438.188 235.953 438.266 236.031 438.328 236.156C438.391 236.25 438.422 236.359 438.422 236.484C438.422 236.609 438.516 236.672 438.703 236.672L439.125 236.578C439.312 236.578 439.406 236.75 439.406 237.094C439.406 237.406 439.422 237.562 439.453 237.562C439.516 237.562 439.578 237.484 439.641 237.328C439.734 237.172 439.812 237.094 439.875 237.094C439.906 237.094 439.953 237.156 440.016 237.281C440.078 237.406 440.141 237.5 440.203 237.562C440.297 237.625 440.359 237.656 440.391 237.656L440.625 237.609C440.875 237.609 441 237.703 441 237.891C441 238.047 440.969 238.266 440.906 238.547C440.875 238.797 440.859 238.969 440.859 239.062C440.859 239.125 440.875 239.156 440.906 239.156C440.938 239.156 440.984 239.078 441.047 238.922C441.109 238.766 441.188 238.656 441.281 238.594C441.406 238.5 441.5 238.453 441.562 238.453C441.688 238.453 441.75 238.672 441.75 239.109C441.75 239.984 441.516 241.734 441.047 244.359C440.141 249.453 439.688 252.406 439.688 253.219C439.75 253.219 439.891 253.047 440.109 252.703C440.359 252.328 440.625 251.844 440.906 251.25C442.281 248.688 443.922 246.016 445.828 243.234C447.766 240.453 449.625 238.062 451.406 236.062C452.719 234.625 453.719 233.906 454.406 233.906C454.875 233.906 455.25 234.219 455.531 234.844C455.719 235.312 456.125 235.828 456.75 236.391C457.656 237.234 458.281 238.422 458.625 239.953C459 241.828 459.281 242.766 459.469 242.766C459.562 242.766 460.188 242.266 461.344 241.266C461.844 240.766 462.469 240.234 463.219 239.672C463.969 239.109 464.531 238.828 464.906 238.828C465.25 238.828 465.422 238.953 465.422 239.203C465.422 239.359 465.328 239.562 465.141 239.812C464.984 240.031 464.906 240.188 464.906 240.281C464.906 240.344 464.938 240.375 465 240.375C465.094 240.375 465.25 240.25 465.469 240L465.609 239.953C465.609 240.078 465.406 240.531 465 241.312L465.609 240.562C465.859 240.188 466.047 240 466.172 240C466.234 240 466.297 240.078 466.359 240.234C466.422 240.359 466.453 240.516 466.453 240.703C466.453 241.609 466.016 242.797 465.141 244.266C464.266 245.734 463.234 246.984 462.047 248.016C461.453 248.578 460.906 248.859 460.406 248.859C459.656 248.859 458.703 248.109 457.547 246.609C456.297 245.141 455.453 243.906 455.016 242.906C454.703 242.094 454.469 241.688 454.312 241.688C454.25 241.688 454.203 241.719 454.172 241.781C453.391 243.281 452.141 246.359 450.422 251.016C448.703 255.672 447.406 259.094 446.531 261.281C444.594 266.344 442.562 271.969 440.438 278.156C439.562 280.688 438.969 282.25 438.656 282.844C438.219 283.375 437.641 283.641 436.922 283.641ZM432.75 273.844C432.875 273.656 433.047 272.062 433.266 269.062C433.641 264.906 433.969 261.609 434.25 259.172C434.531 256.422 434.672 254.703 434.672 254.016C434.672 253.766 434.656 253.641 434.625 253.641C434.531 253.641 434.375 254.484 434.156 256.172C433.188 263.953 432.703 269.625 432.703 273.188C432.703 273.625 432.719 273.844 432.75 273.844ZM434.391 267.703C434.578 266.547 434.688 265.719 434.719 265.219C434.75 264.688 434.766 264.203 434.766 263.766V262.266L434.578 263.906C434.453 265 434.391 265.906 434.391 266.625V267.703ZM432.281 266.719C432.375 266.719 432.422 266.625 432.422 266.438C432.422 266.188 432.375 266.062 432.281 266.062C432.25 266.062 432.234 266.188 432.234 266.438C432.234 266.625 432.25 266.719 432.281 266.719ZM432.562 262.922C432.625 262.922 432.781 261.844 433.031 259.688C433.375 256.906 433.547 255.219 433.547 254.625V254.484C433.453 254.484 433.281 255.531 433.031 257.625C432.781 259.688 432.625 261.328 432.562 262.547V262.922ZM444.469 255.844C444.594 255.844 445.219 254.594 446.344 252.094C448.438 247.594 450.203 244.109 451.641 241.641C452.141 240.766 452.391 240.25 452.391 240.094V240.047C452.328 240.047 452.203 240.188 452.016 240.469C451.703 240.938 450.969 242.266 449.812 244.453C449.094 245.766 448.031 247.922 446.625 250.922C445.219 253.922 444.5 255.562 444.469 255.844ZM452.578 239.812C452.672 239.812 452.812 239.672 453 239.391L453.281 239.016C453.25 239.016 453.141 239.094 452.953 239.25C452.891 239.312 452.797 239.406 452.672 239.531C452.578 239.625 452.531 239.688 452.531 239.719C452.531 239.781 452.547 239.812 452.578 239.812Z" fill="white"/>
</svg>
