<svg width="895" height="258" viewBox="0 0 895 258" fill="none" xmlns="http://www.w3.org/2000/svg">
<g clip-path="url(#clip0_7_18)">
<path d="M89.1493 7.58988L90.7786 199.818" stroke="#FFBD00" stroke-width="4.14133" stroke-miterlimit="10"/>
<path d="M90.9293 201.328L3 159.364L89.0973 5.00012L176.112 159.364L90.9293 201.328Z" stroke="#FFBD00" stroke-width="4.14133" stroke-miterlimit="10"/>
<path d="M90.9294 201.328L33.744 158.92L89.2387 34.5655L145.132 157.747L90.9294 201.328Z" stroke="#FFBD00" stroke-width="4.14133" stroke-miterlimit="10"/>
<path d="M4.33289 157.667H173.666" stroke="#FFBD00" stroke-width="4" stroke-miterlimit="10"/>
<path d="M90.8042 131.613L66.6162 143.159L90.3002 185.623L114.238 143.159L90.8042 131.613Z" stroke="#FFBD00" stroke-width="4.14133" stroke-miterlimit="10"/>
<path d="M68.3329 144.333H111" stroke="#FFBD00" stroke-width="4" stroke-miterlimit="10"/>
<path d="M249.261 174.174C248.206 174.174 247.107 173.954 245.965 173.515C244.515 172.987 243.174 171.713 241.944 169.691C240.713 167.67 239.791 165.253 239.175 162.44C238.34 157.914 237.923 151.432 237.923 142.995C237.923 136.535 238.143 129.635 238.582 122.296C239.065 114.914 239.747 108.08 240.625 101.796C241.329 97.0498 242.229 92.5015 243.328 88.1509C244.954 81.4712 246.646 76.8789 248.404 74.374C249.107 73.3633 249.612 72.8579 249.92 72.8579C250.228 72.8579 251.084 72.2646 252.491 71.0781C254.38 69.54 256.446 68.3755 258.687 67.5845C260.928 66.7495 263.104 66.332 265.213 66.332C267.454 66.332 269.52 66.8154 271.409 67.7822C272.552 68.4414 273.672 69.4741 274.771 70.8804C275.914 72.2427 276.836 73.6929 277.54 75.231C278.287 76.9009 278.968 78.2632 279.583 79.3179C280.374 80.6362 281.077 82.3501 281.692 84.4595C282.703 87.7993 283.208 91.1392 283.208 94.479C283.208 99.4009 282.461 104.74 280.967 110.497C279.517 116.254 277.583 121.286 275.167 125.592C272.706 129.767 269.893 133.327 266.729 136.271C263.565 139.215 260.95 140.688 258.885 140.688C258.006 140.688 257.171 140.402 256.38 139.831C255.633 139.259 255.127 138.534 254.864 137.655L254.666 136.93C254.622 136.93 254.578 137.37 254.534 138.249C254.534 140.138 255.062 146.642 256.116 157.76L256.578 162.572C256.797 165.561 257.083 167.099 257.435 167.187C258.621 168.065 259.214 168.966 259.214 169.889C259.214 170.548 258.929 171.208 258.357 171.867C258.05 172.218 257.698 172.46 257.303 172.592C256.907 172.724 256.27 172.79 255.391 172.79C254.073 172.79 253.018 173.009 252.227 173.449C251.436 173.932 250.447 174.174 249.261 174.174ZM249.393 169.098C249.437 169.098 249.458 169.032 249.458 168.9C249.458 168.549 249.195 167.758 248.667 166.527C248.008 164.857 247.613 164.022 247.481 164.022V164.088C247.481 164.352 247.569 164.792 247.745 165.407C248.36 167.868 248.909 169.098 249.393 169.098ZM247.283 168.439L247.349 168.307C247.349 168.131 247.261 167.868 247.085 167.516C246.91 167.208 246.8 167.055 246.756 167.055V167.187C246.756 167.318 246.8 167.56 246.888 167.912C247.02 168.263 247.129 168.439 247.217 168.439H247.283ZM251.304 168.439C251.348 168.439 251.37 168.395 251.37 168.307C251.37 168 251.106 167.055 250.579 165.473C250.008 163.539 249.656 162.572 249.524 162.572C249.48 162.572 249.458 162.682 249.458 162.902C249.458 163.253 249.546 163.847 249.722 164.682C249.942 165.473 250.206 166.22 250.513 166.923C250.953 167.934 251.216 168.439 251.304 168.439ZM249.261 162.177C249.305 162.177 249.327 162.155 249.327 162.111C249.371 162.023 249.393 161.913 249.393 161.781C249.393 161.386 249.327 161.188 249.195 161.188C249.151 161.188 249.129 161.32 249.129 161.583C249.129 161.979 249.173 162.177 249.261 162.177ZM247.349 134.689C247.481 134.689 247.613 131.437 247.745 124.933C247.92 116.847 248.074 111.068 248.206 107.597L248.272 104.433C248.272 103.817 248.25 103.51 248.206 103.51C248.074 103.51 247.876 105.949 247.613 110.827C247.261 117.902 247.085 123.703 247.085 128.229C247.129 132.536 247.217 134.689 247.349 134.689ZM262.247 131.92C262.466 131.92 263.433 130.91 265.147 128.888C266.861 126.867 268.047 125.263 268.707 124.076C269.19 123.329 269.432 122.912 269.432 122.824L269.366 122.758C269.278 122.758 267.828 124.516 265.015 128.031C263.169 130.404 262.247 131.701 262.247 131.92ZM261.258 129.877C261.478 129.877 262.752 128.427 265.081 125.526C268.113 121.747 270.464 118.012 272.134 114.32L272.398 113.661C272.266 113.661 271.167 115.287 269.102 118.539C267.212 121.483 265.521 123.944 264.026 125.922C263.367 126.713 262.752 127.504 262.181 128.295C261.653 129.042 261.324 129.569 261.192 129.877H261.258ZM270.486 128.69C270.574 128.69 270.662 128.646 270.75 128.559C270.838 128.427 270.948 128.295 271.08 128.163C271.211 128.031 271.387 127.768 271.607 127.372C271.871 126.977 272.288 126.164 272.859 124.933L272.002 126.12C271.739 126.471 271.475 126.845 271.211 127.24C270.992 127.592 270.816 127.921 270.684 128.229L270.486 128.69ZM253.941 128.427C254.512 127.724 255.062 127.021 255.589 126.317C256.16 125.57 257.347 123.878 259.148 121.242C267.454 109.245 272.288 99.7744 273.65 92.8311C274.441 89.1396 274.837 86.1733 274.837 83.9321C274.837 83.3169 274.793 82.7896 274.705 82.3501C274.09 79.4937 270.53 77.9995 264.026 77.8677C261.521 77.8677 259.874 77.9775 259.083 78.1973C258.292 78.373 257.896 78.7466 257.896 79.3179C257.896 79.8452 257.566 80.4824 256.907 81.2295C254.622 83.1191 253.479 93.6001 253.479 112.672C253.479 116.188 253.501 119.308 253.545 122.033C253.589 124.757 253.655 126.383 253.743 126.911C253.831 127.438 253.897 127.943 253.941 128.427ZM263.433 124.604C263.477 124.604 263.653 124.406 263.96 124.01C264.488 123.395 265.037 122.67 265.608 121.835C266.224 120.956 266.751 120.165 267.19 119.462C267.63 118.715 268.069 117.946 268.509 117.155C268.948 116.32 269.322 115.595 269.629 114.979C269.937 114.364 270.091 114.013 270.091 113.925C270.047 113.925 270.003 113.969 269.959 114.057C269.915 114.101 269.52 114.716 268.772 115.902C268.025 117.045 267.125 118.451 266.07 120.121C264.312 122.934 263.433 124.428 263.433 124.604ZM245.503 121.374L245.701 118.737C246.097 110.651 246.734 103.246 247.613 96.5225C248.184 92.2598 248.733 88.9419 249.261 86.5688C249.788 84.1958 250.052 82.8555 250.052 82.5479V82.416C249.744 82.416 249.305 83.7563 248.733 86.437C246.58 96.4565 245.503 108.102 245.503 121.374ZM244.91 105.883L244.976 105.487C244.976 105.355 244.954 105.224 244.91 105.092L244.844 104.894C244.756 104.894 244.712 105.026 244.712 105.29C244.712 105.685 244.756 105.883 244.844 105.883H244.91ZM245.174 103.378C245.306 103.378 245.372 103.158 245.372 102.719C245.372 102.543 245.328 102.367 245.24 102.191L245.174 101.928C245.13 101.928 245.108 102.147 245.108 102.587C245.108 103.07 245.13 103.334 245.174 103.378ZM248.536 101.598C248.58 101.51 248.624 101.181 248.667 100.609C248.711 99.9941 248.755 99.291 248.799 98.5C248.887 97.709 248.931 97.1377 248.931 96.7861C248.931 96.4785 248.909 96.3247 248.865 96.3247L248.799 96.6543C248.58 97.5771 248.47 98.9395 248.47 100.741C248.47 101.005 248.47 101.225 248.47 101.4C248.47 101.532 248.492 101.598 248.536 101.598ZM245.503 100.412C245.547 100.412 245.591 100.346 245.635 100.214C245.679 100.038 245.701 99.8184 245.701 99.5547C245.701 99.335 245.679 99.1372 245.635 98.9614C245.591 98.7856 245.547 98.6978 245.503 98.6978C245.459 98.6978 245.438 98.9834 245.438 99.5547C245.438 100.126 245.459 100.412 245.503 100.412ZM245.833 97.7749C245.965 97.7749 246.031 97.5332 246.031 97.0498C246.031 96.5664 245.965 96.3247 245.833 96.3247C245.789 96.3247 245.767 96.5444 245.767 96.9839C245.767 97.4673 245.789 97.731 245.833 97.7749ZM246.229 95.4019L246.294 95.27C246.338 95.1382 246.36 94.9844 246.36 94.8086C246.36 94.2373 246.294 93.9517 246.163 93.9517C246.119 93.9517 246.097 94.1714 246.097 94.6108C246.097 95.1382 246.141 95.4019 246.229 95.4019ZM249.261 94.6108C249.349 94.6108 249.393 94.3911 249.393 93.9517C249.393 93.3804 249.349 93.0947 249.261 93.0947C249.217 93.0947 249.173 93.3364 249.129 93.8198C249.129 94.3032 249.173 94.5669 249.261 94.6108ZM246.492 93.0947C246.536 92.875 246.602 92.6333 246.69 92.3696C246.778 92.106 246.844 91.7983 246.888 91.4468C246.976 91.0952 247.02 90.8315 247.02 90.6558C247.02 90.3481 246.998 90.1943 246.954 90.1943C246.91 90.1943 246.822 90.3701 246.69 90.7217C246.602 91.0732 246.536 91.4248 246.492 91.7764C246.448 92.1279 246.426 92.3916 246.426 92.5674C246.426 92.9189 246.448 93.0947 246.492 93.0947ZM249.986 90.3262C250.074 90.2383 250.118 90.1284 250.118 89.9966L249.92 89.4033C249.832 89.4033 249.788 89.5352 249.788 89.7988C249.788 90.1504 249.832 90.3262 249.92 90.3262H249.986ZM247.151 89.4692C247.195 89.4692 247.261 89.2935 247.349 88.9419C247.481 88.5903 247.569 88.2607 247.613 87.9531C247.657 87.6455 247.679 87.4038 247.679 87.228C247.679 87.0522 247.657 86.9644 247.613 86.9644C247.569 86.9644 247.481 87.1401 247.349 87.4917C247.217 87.8433 247.151 88.2607 247.151 88.7441V89.4692ZM250.909 84.7891C250.997 84.7891 251.106 84.5474 251.238 84.064V83.7344C251.238 83.5146 251.216 83.4048 251.172 83.4048C251.128 83.4048 251.084 83.4268 251.041 83.4707C250.997 83.5146 250.931 83.6245 250.843 83.8003C250.799 83.9761 250.777 84.1299 250.777 84.2617C250.777 84.6133 250.821 84.7891 250.909 84.7891ZM299.029 159.87C298.282 159.87 297.623 159.628 297.051 159.145C296.568 158.617 296.019 158.354 295.403 158.354C294.964 158.354 294.415 158.485 293.755 158.749C293.404 158.925 293.074 159.013 292.767 159.013C292.415 159.013 291.624 158.705 290.394 158.09C289.207 157.475 288.372 156.64 287.889 155.585C287.405 154.53 287.142 152.794 287.098 150.377C287.098 146.071 287.493 140.314 288.284 133.107C289.075 125.856 289.998 118.825 291.053 112.013C292.107 105.202 293.074 100.324 293.953 97.3794C294.744 94.7866 295.425 93.0068 295.997 92.04C296.612 91.0732 297.359 90.5898 298.238 90.5898L298.633 90.6558C299.161 90.6558 299.512 90.7437 299.688 90.9194C299.908 91.0513 300.04 91.271 300.083 91.5786C300.127 91.8862 300.193 92.1499 300.281 92.3696C300.413 92.5454 300.545 92.6772 300.677 92.7651C300.809 92.8091 300.918 92.9189 301.006 93.0947C301.094 93.2266 301.138 93.3804 301.138 93.5562C301.138 93.7319 301.27 93.8198 301.534 93.8198L302.127 93.688C302.391 93.688 302.522 93.9297 302.522 94.4131C302.522 94.8525 302.544 95.0723 302.588 95.0723C302.676 95.0723 302.764 94.9624 302.852 94.7427C302.984 94.5229 303.094 94.4131 303.182 94.4131C303.226 94.4131 303.292 94.501 303.379 94.6768C303.467 94.8525 303.555 94.9844 303.643 95.0723C303.775 95.1602 303.863 95.2041 303.907 95.2041L304.236 95.1382C304.588 95.1382 304.764 95.27 304.764 95.5337C304.764 95.7534 304.72 96.061 304.632 96.4565C304.588 96.8081 304.566 97.0498 304.566 97.1816C304.566 97.2695 304.588 97.3135 304.632 97.3135C304.676 97.3135 304.742 97.2036 304.83 96.9839C304.917 96.7642 305.027 96.6104 305.159 96.5225C305.335 96.3906 305.467 96.3247 305.555 96.3247C305.73 96.3247 305.818 96.6323 305.818 97.2476C305.818 98.478 305.489 100.939 304.83 104.63C303.555 111.793 302.918 115.946 302.918 117.089C303.006 117.089 303.204 116.847 303.511 116.364C303.863 115.836 304.236 115.155 304.632 114.32C306.565 110.717 308.873 106.959 311.553 103.048C314.278 99.1372 316.893 95.7754 319.397 92.9629C321.243 90.9414 322.649 89.9307 323.616 89.9307C324.275 89.9307 324.803 90.3701 325.198 91.249C325.462 91.9082 326.033 92.6333 326.912 93.4243C328.187 94.6108 329.065 96.2808 329.549 98.4341C330.076 101.071 330.472 102.389 330.735 102.389C330.867 102.389 331.746 101.686 333.372 100.28C334.075 99.5767 334.954 98.8296 336.009 98.0386C337.063 97.2476 337.854 96.8521 338.382 96.8521C338.865 96.8521 339.107 97.0278 339.107 97.3794C339.107 97.5991 338.975 97.8848 338.711 98.2363C338.492 98.5439 338.382 98.7637 338.382 98.8955C338.382 98.9834 338.426 99.0273 338.514 99.0273C338.646 99.0273 338.865 98.8516 339.173 98.5L339.371 98.4341C339.371 98.6099 339.085 99.2471 338.514 100.346L339.371 99.291C339.722 98.7637 339.986 98.5 340.162 98.5C340.25 98.5 340.337 98.6099 340.425 98.8296C340.513 99.0054 340.557 99.2251 340.557 99.4888C340.557 100.763 339.942 102.433 338.711 104.499C337.481 106.564 336.031 108.322 334.361 109.772C333.526 110.563 332.757 110.958 332.054 110.958C330.999 110.958 329.659 109.904 328.033 107.794C326.275 105.729 325.088 103.993 324.473 102.587C324.034 101.444 323.704 100.873 323.484 100.873C323.396 100.873 323.331 100.917 323.287 101.005C322.188 103.114 320.43 107.443 318.013 113.991C315.596 120.539 313.772 125.351 312.542 128.427C309.817 135.546 306.961 143.456 303.973 152.157C302.742 155.717 301.907 157.914 301.468 158.749C300.853 159.496 300.04 159.87 299.029 159.87ZM293.162 146.093C293.338 145.829 293.58 143.588 293.887 139.369C294.415 133.524 294.876 128.888 295.271 125.46C295.667 121.593 295.865 119.176 295.865 118.209C295.865 117.858 295.843 117.682 295.799 117.682C295.667 117.682 295.447 118.869 295.14 121.242C293.777 132.184 293.096 140.16 293.096 145.17C293.096 145.785 293.118 146.093 293.162 146.093ZM295.469 137.458C295.733 135.832 295.887 134.667 295.931 133.964C295.975 133.217 295.997 132.536 295.997 131.92V129.811L295.733 132.118C295.557 133.656 295.469 134.931 295.469 135.941V137.458ZM292.503 136.073C292.635 136.073 292.701 135.941 292.701 135.678C292.701 135.326 292.635 135.15 292.503 135.15C292.459 135.15 292.437 135.326 292.437 135.678C292.437 135.941 292.459 136.073 292.503 136.073ZM292.898 130.734C292.986 130.734 293.206 129.218 293.558 126.186C294.041 122.274 294.283 119.901 294.283 119.066V118.869C294.151 118.869 293.909 120.341 293.558 123.285C293.206 126.186 292.986 128.493 292.898 130.207V130.734ZM309.642 120.78C309.817 120.78 310.696 119.022 312.278 115.507C315.223 109.179 317.706 104.279 319.727 100.807C320.43 99.5767 320.782 98.8516 320.782 98.6318V98.5659C320.694 98.5659 320.518 98.7637 320.254 99.1592C319.815 99.8184 318.782 101.686 317.156 104.762C316.146 106.608 314.651 109.64 312.674 113.859C310.696 118.078 309.686 120.385 309.642 120.78ZM321.045 98.2363C321.177 98.2363 321.375 98.0386 321.639 97.6431L322.034 97.1157C321.99 97.1157 321.836 97.2256 321.573 97.4453C321.485 97.5332 321.353 97.665 321.177 97.8408C321.045 97.9727 320.979 98.0605 320.979 98.1045C320.979 98.1924 321.001 98.2363 321.045 98.2363ZM355.85 94.479C355.542 94.479 355.147 94.3032 354.664 93.9517C354.224 93.6001 353.741 93.4243 353.213 93.4243C352.686 93.4243 352.137 93.2485 351.565 92.897C350.994 92.5454 350.708 91.9082 350.708 90.9854V90.7217C350.708 89.7988 350.928 88.5024 351.368 86.8325C351.631 85.9097 351.873 84.7671 352.093 83.4048C352.312 82.0425 352.466 80.7461 352.554 79.5156C352.73 77.8018 352.906 76.5713 353.082 75.8242C353.257 75.0771 353.543 74.4399 353.938 73.9126C354.378 73.3413 354.883 72.8799 355.455 72.5283C356.026 72.1328 356.553 71.9351 357.037 71.9351C357.125 71.9351 357.52 72.2427 358.223 72.8579C358.794 73.4731 359.498 73.8687 360.333 74.0444C362.398 74.4839 363.431 75.3188 363.431 76.5493C363.431 77.5161 363.101 79.1421 362.442 81.4272C361.827 83.6685 361.08 85.7559 360.201 87.6895C359.102 90.1504 358.245 91.9082 357.63 92.9629C357.015 93.9736 356.421 94.479 355.85 94.479ZM352.093 114.057C352.181 114.013 352.225 113.859 352.225 113.595C352.225 113.507 352.203 113.419 352.159 113.332C352.115 113.2 352.049 113.134 351.961 113.134C351.961 113.397 351.939 113.595 351.895 113.727C351.895 113.903 351.961 114.013 352.093 114.057ZM348.27 123.219C348.401 123.219 349.017 120.934 350.115 116.364C350.95 112.98 351.368 110.958 351.368 110.299V110.036C351.192 110.036 350.972 110.563 350.708 111.618L348.929 119.396C348.445 121.154 348.204 122.34 348.204 122.956C348.204 123.131 348.226 123.219 348.27 123.219ZM344.842 138.314C344.974 138.314 346.05 133.81 348.072 124.801L348.138 124.274C348.138 124.186 348.116 124.142 348.072 124.142C348.028 124.186 347.962 124.252 347.874 124.34C347.786 124.428 347.61 125.065 347.347 126.251C346.688 128.8 346.05 131.679 345.435 134.887C345.04 136.776 344.842 137.919 344.842 138.314ZM344.578 141.281L344.644 141.149C344.688 141.061 344.71 140.973 344.71 140.885C344.71 140.622 344.688 140.446 344.644 140.358C344.6 140.226 344.556 140.138 344.512 140.094C344.468 140.094 344.446 140.292 344.446 140.688C344.446 141.083 344.49 141.281 344.578 141.281ZM344.249 143.126C344.336 143.126 344.38 142.951 344.38 142.599C344.38 142.335 344.358 142.182 344.314 142.138C344.314 142.05 344.292 142.006 344.249 142.006V141.94C344.205 141.94 344.183 142.138 344.183 142.533L344.249 143.126ZM345.699 154.662C345.831 154.662 345.896 153.278 345.896 150.509C345.896 146.95 345.984 144.73 346.16 143.852C347.127 137.04 348.467 129.855 350.181 122.296C351.28 117.594 351.829 115.045 351.829 114.65C351.785 114.65 351.565 115.375 351.17 116.825C350.818 118.275 350.379 120.055 349.852 122.165C348.533 127.833 347.566 132.382 346.951 135.81C346.336 139.193 345.875 142.511 345.567 145.763C345.303 148.136 345.171 150.004 345.171 151.366C345.171 152.509 345.303 153.52 345.567 154.398C345.611 154.574 345.655 154.662 345.699 154.662ZM344.512 156.574V156.376C344.512 156.156 344.446 155.871 344.314 155.519C344.227 155.167 344.051 154.157 343.787 152.487C343.611 151.432 343.479 150.399 343.392 149.389L343.458 152.816C343.589 155.321 343.941 156.574 344.512 156.574ZM352.488 162.111C351.697 162.111 350.884 161.957 350.049 161.649C349.522 161.474 348.995 161.386 348.467 161.386C348.072 161.386 347.632 161.43 347.149 161.518C346.709 161.605 346.292 161.649 345.896 161.649C345.193 161.649 344.271 161.496 343.128 161.188C340.931 160.661 339.371 159.804 338.448 158.617C337.525 157.387 337.042 155.519 336.998 153.014V151.234C336.998 150.487 337.02 149.74 337.063 148.993C337.063 148.202 337.107 147.543 337.195 147.016C337.459 145.258 338.008 142.599 338.843 139.04C339.678 135.436 340.513 132.03 341.348 128.822C341.744 127.504 342.051 126.339 342.271 125.329C342.491 124.318 342.601 123.725 342.601 123.549C342.601 123.153 342.293 122.758 341.678 122.362C341.062 121.967 340.733 121.396 340.689 120.648C340.689 119.638 340.975 117.748 341.546 114.979C343.128 107.377 345.083 102.851 347.413 101.4C347.984 101.005 348.467 100.807 348.863 100.807C349.346 100.807 349.786 101.049 350.181 101.532C350.621 102.016 351.5 102.455 352.818 102.851C355.455 103.642 356.773 105.004 356.773 106.938V109.311C356.773 111.815 356.268 115.199 355.257 119.462C353.587 127.108 352.466 133.393 351.895 138.314C351.587 141.083 351.434 144.357 351.434 148.136C351.434 150.29 351.521 151.366 351.697 151.366C351.785 151.366 352.071 151.103 352.554 150.575C353.829 149.257 356.312 146.203 360.003 141.413L369.891 128.625C373.758 123.571 375.933 120.89 376.417 120.583L376.812 120.517C377.032 120.517 377.251 120.604 377.471 120.78C377.691 120.956 378.108 121.088 378.724 121.176C379.339 121.264 379.778 121.637 380.042 122.296C380.13 122.428 380.174 122.648 380.174 122.956C380.174 123.395 380.064 123.9 379.844 124.472C379.668 125.043 379.339 125.856 378.855 126.911C376.922 131.217 374.527 135.854 371.67 140.819C368.814 145.741 366.199 149.806 363.826 153.014C361.453 156.178 359.388 158.485 357.63 159.936C355.872 161.386 354.158 162.111 352.488 162.111ZM380.569 186.369C379.646 186.369 378.899 186.281 378.328 186.105C377.801 185.973 377.229 185.731 376.614 185.38C375.999 185.072 375.318 184.611 374.571 183.996C373.824 183.424 373.187 182.831 372.659 182.216C372.088 181.645 371.517 181.073 370.945 180.502C370.33 179.975 369.825 179.579 369.429 179.315C369.034 179.052 368.55 178.612 367.979 177.997C367.408 177.426 366.88 176.767 366.397 176.02C365.87 175.272 365.518 174.657 365.342 174.174C365.123 173.734 365.013 173.163 365.013 172.46C365.013 170.175 365.167 168.395 365.474 167.121C365.694 166.242 366.111 165.187 366.727 163.957C368.528 159.958 371.692 155.695 376.219 151.168C379.998 147.257 384.195 143.742 388.809 140.622C393.643 137.326 400.257 133.634 408.65 129.547C406.98 129.459 405.311 129.416 403.641 129.416C400.477 129.416 397.269 129.591 394.017 129.943C389.974 130.338 386.941 130.536 384.92 130.536C383.25 130.536 382.02 130.404 381.229 130.141C380.701 130.009 380.13 129.701 379.515 129.218C378.899 128.734 378.35 128.229 377.867 127.702C377.383 127.174 377.142 126.823 377.142 126.647C377.142 126.427 377.032 126.164 376.812 125.856C376.636 125.548 376.395 125.263 376.087 124.999C375.34 124.252 374.725 123.307 374.241 122.165C373.758 120.978 373.516 119.857 373.516 118.803C373.516 113.705 378.658 106.125 388.941 96.061C398.785 86.5249 406.277 81.7568 411.419 81.7568C412.649 81.7568 413.77 81.9985 414.781 82.4819C416.099 83.1411 417.022 83.6904 417.549 84.1299C418.912 85.7998 419.878 88.7441 420.45 92.9629C420.625 94.501 420.713 95.4458 420.713 95.7974C420.713 96.1489 420.625 96.3467 420.45 96.3906C420.142 96.3906 419.505 95.9951 418.538 95.2041C417.879 94.7207 417.286 94.4131 416.758 94.2812C416.231 94.1055 415.396 94.0176 414.253 94.0176C412.759 94.0176 411.309 94.3252 409.903 94.9404C408.541 95.5117 406.717 96.6104 404.432 98.2363C401.575 100.741 398.367 103.729 394.808 107.201C391.292 110.673 388.172 113.859 385.447 116.759C382.767 119.616 381.426 121.22 381.426 121.571C381.426 121.659 381.47 121.703 381.558 121.703C382.217 121.703 383.865 121.374 386.502 120.714C393.27 118.913 398.851 118.012 403.245 118.012C407.332 118.012 410.694 118.781 413.331 120.319C414.166 120.802 415.066 121.505 416.033 122.428C417 123.307 417.681 124.076 418.077 124.735C418.165 124.999 418.384 125.131 418.736 125.131C419.351 125.131 421.9 124.318 426.382 122.692C433.809 120.011 438.709 118.671 441.082 118.671C442.093 118.671 442.686 118.759 442.862 118.935C443.082 119.11 443.191 119.55 443.191 120.253C443.191 120.912 443.301 121.242 443.521 121.242L443.917 121.176C444.092 121.176 444.18 121.286 444.18 121.505C444.18 122.296 443.873 123 443.257 123.615C442.95 123.922 442.049 124.472 440.555 125.263C439.061 126.01 437.281 126.845 435.215 127.768C433.194 128.646 431.282 129.503 429.48 130.338L423.021 133.305C423.152 133.832 423.262 134.337 423.35 134.821C423.438 135.304 423.504 136.073 423.548 137.128C423.636 138.139 423.68 139.171 423.68 140.226C423.68 141.808 423.592 143.083 423.416 144.049C423.24 144.972 422.889 146.093 422.361 147.411C419.769 153.607 415.132 160.463 408.453 167.978C401.773 175.492 395.423 180.941 389.402 184.325C387.952 185.116 386.81 185.622 385.975 185.841C384.788 186.193 382.986 186.369 380.569 186.369ZM375.757 171.735C375.977 171.735 376.438 171.537 377.142 171.142C377.889 170.79 379.075 170.153 380.701 169.23C385.096 166.813 389.622 163.693 394.28 159.87C398.938 156.046 402.806 152.311 405.882 148.664C407.552 146.686 409.046 144.752 410.364 142.863C411.683 140.973 412.342 139.831 412.342 139.435C412.342 139.347 412.32 139.303 412.276 139.303C411.792 139.303 410.232 140.094 407.596 141.676C404.959 143.214 402.037 145.038 398.829 147.147C395.665 149.213 392.918 151.125 390.589 152.882C386.985 155.695 383.58 159.101 380.372 163.1C377.164 167.055 375.56 169.823 375.56 171.405C375.56 171.625 375.625 171.735 375.757 171.735ZM398.235 169.032C398.323 169.032 398.829 168.659 399.751 167.912C402.52 165.714 405.311 162.946 408.123 159.606L409.837 157.497C409.749 157.497 408.672 158.551 406.607 160.661C403.663 163.605 401.355 165.868 399.686 167.45C398.719 168.373 398.235 168.9 398.235 169.032ZM369.891 169.23C370.066 169.23 370.528 168.373 371.275 166.659C372.286 164.462 372.923 163.209 373.187 162.902C373.406 162.594 373.516 162.418 373.516 162.375C373.165 162.375 372.593 163.078 371.802 164.484C370.484 166.901 369.825 168.461 369.825 169.164C369.825 169.208 369.847 169.23 369.891 169.23ZM371.934 168.043C372.066 168.043 372.33 167.648 372.725 166.857C372.945 166.374 373.692 165.055 374.966 162.902C375.757 161.627 376.9 160.067 378.394 158.222L379.383 156.969L377.669 158.815C376.219 160.441 374.9 162.221 373.714 164.154C372.483 166.044 371.868 167.296 371.868 167.912C371.868 168 371.89 168.043 371.934 168.043ZM399.949 164.945C400.037 164.945 400.564 164.462 401.531 163.495C402.542 162.484 403.729 161.276 405.091 159.87C407.332 157.541 409.419 155.146 411.353 152.685C413.331 150.18 414.693 148.202 415.44 146.752C415.572 146.444 415.638 146.247 415.638 146.159C415.506 146.159 414.385 147.609 412.276 150.509C410.474 152.97 407.903 156.002 404.563 159.606C401.531 162.99 399.993 164.77 399.949 164.945ZM404.432 158.09C404.476 158.09 405.025 157.519 406.08 156.376C407.618 154.706 409.068 153.014 410.43 151.3C411.221 150.202 411.617 149.608 411.617 149.521C411.485 149.521 410.035 151.19 407.266 154.53C405.376 156.815 404.432 158.002 404.432 158.09ZM381.031 111.354C381.075 111.354 382.525 109.486 385.381 105.751L387.688 102.719C387.645 102.719 387.117 103.29 386.106 104.433C384.48 106.234 383.118 108.014 382.02 109.772L381.031 111.354ZM393.885 96.2588C394.061 96.2588 394.324 96.0171 394.676 95.5337C394.939 95.1821 395.071 94.9844 395.071 94.9404C395.027 94.9404 394.874 95.0503 394.61 95.27C394.346 95.4897 394.148 95.6655 394.017 95.7974C393.885 95.9292 393.819 96.0171 393.819 96.061C393.819 96.1929 393.841 96.2588 393.885 96.2588ZM444.246 164.088C444.246 164 444.224 163.957 444.18 163.957C444.092 163.957 444.048 164.242 444.048 164.813C444.048 165.033 444.07 165.231 444.114 165.407L444.18 165.67C444.224 165.67 444.246 165.626 444.246 165.539C444.334 165.275 444.378 165.033 444.378 164.813C444.378 164.594 444.334 164.352 444.246 164.088ZM492.3 74.9014C492.652 74.1104 492.938 73.4292 493.157 72.8579C493.421 72.2866 493.553 71.957 493.553 71.8691C493.509 71.8691 493.333 72.1548 493.025 72.7261C492.718 73.2534 492.366 73.9126 491.971 74.7036C491.619 75.4507 491.29 76.1538 490.982 76.813C490.718 77.4282 490.586 77.7798 490.586 77.8677C490.586 77.9995 490.608 78.0654 490.652 78.0654C490.696 78.0654 490.85 77.8457 491.114 77.4062C491.377 76.9229 491.773 76.0879 492.3 74.9014ZM490.389 76.2197C490.872 74.9453 491.355 73.8247 491.839 72.8579C492.322 71.8472 492.652 71.188 492.828 70.8804C493.135 70.353 493.289 69.9795 493.289 69.7598V69.6938C493.157 69.6938 492.806 70.1992 492.234 71.21C491.707 72.2207 491.136 73.4072 490.521 74.7695C489.905 76.0879 489.356 77.3184 488.873 78.4609C488.433 79.6035 488.213 80.3066 488.213 80.5703C488.213 80.7021 488.235 80.79 488.279 80.834C488.323 80.834 488.499 80.5044 488.807 79.8452C489.114 79.1421 489.642 77.9336 490.389 76.2197ZM489.202 82.3501C489.246 82.0864 489.268 81.8667 489.268 81.6909C489.224 81.6909 489.158 81.7788 489.07 81.9546C488.938 82.1304 488.829 82.3721 488.741 82.6797C488.653 82.9434 488.543 83.207 488.411 83.4707C488.367 83.7783 488.345 83.998 488.345 84.1299L488.477 83.8662C488.609 83.6465 488.741 83.4048 488.873 83.1411C489.004 82.8335 489.114 82.5698 489.202 82.3501ZM488.016 81.2295C487.972 81.2295 487.862 81.4053 487.686 81.7568C487.554 82.1084 487.4 82.5259 487.225 83.0093C487.093 83.4487 486.961 83.8882 486.829 84.3276C486.697 84.7671 486.631 85.0527 486.631 85.1846V85.2505C486.675 85.2505 486.763 85.0967 486.895 84.7891C487.071 84.4375 487.247 84.02 487.422 83.5366C487.818 82.3062 488.016 81.5811 488.016 81.3613V81.2295ZM447.41 89.2056L447.344 89.0737C447.212 89.0737 447.146 89.2056 447.146 89.4692C447.146 89.7769 447.212 89.9526 447.344 89.9966H447.41C447.498 89.8647 447.542 89.7329 447.542 89.6011C447.542 89.4692 447.498 89.3374 447.41 89.2056ZM487.291 87.4258C487.159 87.4258 487.027 87.6016 486.895 87.9531C486.763 88.3047 486.609 88.7222 486.434 89.2056C486.258 89.689 486.104 90.1504 485.972 90.5898C485.884 91.0293 485.84 91.3369 485.84 91.5127V91.6445C485.972 91.6445 486.236 91.0293 486.631 89.7988C486.807 89.2715 486.961 88.7881 487.093 88.3486C487.225 87.9092 487.291 87.6235 487.291 87.4917V87.4258ZM485.774 92.1719L485.247 93.3584C485.071 93.666 484.917 94.0615 484.786 94.5449C484.698 94.9844 484.588 95.3579 484.456 95.6655L484.258 96.7861L484.786 95.5996C485.005 95.292 485.181 94.9185 485.313 94.479C485.445 93.9956 485.555 93.6001 485.643 93.2925L485.774 92.1719ZM449.454 95.9292C449.454 95.8413 449.41 95.7974 449.322 95.7974C449.278 95.7974 449.256 96.083 449.256 96.6543C449.256 97.1816 449.278 97.4673 449.322 97.5112C449.41 97.5112 449.454 97.4453 449.454 97.3135C449.498 97.0938 449.52 96.874 449.52 96.6543C449.52 96.3906 449.498 96.1489 449.454 95.9292ZM483.401 100.939C483.401 100.763 483.379 100.675 483.335 100.675C483.248 100.675 483.138 100.807 483.006 101.071C482.918 101.334 482.83 101.598 482.742 101.862C482.698 102.125 482.676 102.323 482.676 102.455C482.676 102.587 482.698 102.653 482.742 102.653C482.83 102.653 482.918 102.543 483.006 102.323C483.094 102.06 483.182 101.818 483.27 101.598C483.357 101.334 483.401 101.115 483.401 100.939ZM449.058 98.3682L448.729 99.8843C448.641 100.368 448.553 100.895 448.465 101.466C448.421 101.994 448.399 102.455 448.399 102.851V104.235L448.794 102.653C448.882 102.169 448.948 101.664 448.992 101.137C449.08 100.609 449.124 100.148 449.124 99.7524L449.058 98.3682ZM446.685 106.476C446.817 105.246 446.971 103.993 447.146 102.719C447.322 101.4 447.454 100.346 447.542 99.5547C447.718 98.7197 447.85 97.709 447.938 96.5225C448.113 95.5557 448.245 94.6768 448.333 93.8857C448.509 93.0068 448.641 92.062 448.729 91.0513C448.86 90.2163 448.97 89.5791 449.058 89.1396C449.102 88.6562 449.124 88.2827 449.124 88.019C449.124 87.6235 449.058 87.4038 448.926 87.3599C448.75 87.7554 448.421 89.5132 447.938 92.6333C447.498 95.7534 447.037 99.291 446.553 103.246C446.377 104.828 446.202 106.234 446.026 107.465C445.894 108.695 445.806 109.442 445.762 109.706C445.718 109.882 445.696 110.036 445.696 110.167C445.696 110.431 445.74 110.563 445.828 110.563C445.96 110.563 446.092 110.167 446.224 109.376C446.399 108.542 446.553 107.575 446.685 106.476ZM448.465 106.146C448.553 105.751 448.597 105.399 448.597 105.092C448.597 104.696 448.531 104.477 448.399 104.433C448.311 104.433 448.179 104.828 448.003 105.619C447.872 106.41 447.74 107.311 447.608 108.322C447.52 109.333 447.476 110.146 447.476 110.761C447.476 111.156 447.498 111.398 447.542 111.486C447.542 111.53 447.564 111.552 447.608 111.552C447.784 111.552 448.069 109.75 448.465 106.146ZM445.762 111.552C445.674 111.552 445.63 111.75 445.63 112.145C445.63 112.541 445.652 112.738 445.696 112.738C445.74 112.738 445.784 112.694 445.828 112.606C445.916 112.475 445.96 112.299 445.96 112.079C445.96 111.947 445.916 111.793 445.828 111.618L445.762 111.552ZM506.802 111.881C506.802 111.75 506.78 111.684 506.736 111.684C506.692 111.684 506.67 111.969 506.67 112.541C506.67 113.112 506.692 113.397 506.736 113.397C506.78 113.397 506.802 113.332 506.802 113.2C506.846 112.98 506.868 112.76 506.868 112.541C506.868 112.277 506.846 112.057 506.802 111.881ZM498.497 101.928C498.497 100.961 498.475 100.17 498.431 99.5547C498.431 98.9395 498.409 98.6099 498.365 98.5659C498.321 98.6978 498.255 99.5327 498.167 101.071C498.123 102.609 498.079 104.499 498.035 106.74C497.991 108.542 497.969 109.948 497.969 110.958C497.969 112.277 497.991 112.936 498.035 112.936C498.079 112.936 498.123 112.804 498.167 112.541C498.299 111.881 498.387 110.783 498.431 109.245C498.475 107.663 498.497 106.059 498.497 104.433V101.928ZM447.608 114.32C447.696 114.013 447.74 113.727 447.74 113.463C447.74 112.892 447.652 112.497 447.476 112.277L447.41 112.211C447.234 112.211 447.146 112.387 447.146 112.738C447.146 113.046 447.103 113.485 447.015 114.057C447.015 114.32 446.993 114.562 446.949 114.782C446.905 115.045 446.883 115.287 446.883 115.507C446.883 115.814 446.949 115.968 447.081 115.968C447.212 115.968 447.322 115.814 447.41 115.507C447.498 115.199 447.564 114.804 447.608 114.32ZM499.947 121.308C500.079 119.286 500.167 116.21 500.21 112.079C500.298 107.948 500.342 104.389 500.342 101.4C500.342 100.082 500.32 99.0054 500.276 98.1704C500.276 97.3354 500.254 96.918 500.21 96.918V96.9839C500.123 97.7749 500.013 99.7524 499.881 102.917C499.749 106.037 499.639 109.464 499.551 113.2C499.463 116.935 499.419 119.813 499.419 121.835C499.419 123.241 499.441 123.988 499.485 124.076C499.617 123.988 499.705 123.681 499.749 123.153C499.837 122.626 499.903 122.011 499.947 121.308ZM446.883 120.385C446.927 119.242 446.949 118.429 446.949 117.946V117.55C446.905 117.55 446.861 117.682 446.817 117.946C446.641 118.913 446.487 120.275 446.355 122.033C446.224 123.791 446.158 125.087 446.158 125.922C446.158 126.317 446.18 126.515 446.224 126.515L446.29 126.251C446.421 125.768 446.531 124.977 446.619 123.878C446.751 122.78 446.839 121.615 446.883 120.385ZM502.452 116.364C502.452 112.584 502.408 110.651 502.32 110.563C502.276 110.563 502.21 110.695 502.122 110.958C502.078 111.618 502.034 112.98 501.99 115.045C501.946 117.067 501.902 119.33 501.858 121.835C501.858 126.405 501.902 128.581 501.99 128.361C502.034 128.361 502.078 127.987 502.122 127.24C502.254 126.273 502.342 124.757 502.386 122.692C502.43 120.583 502.452 118.473 502.452 116.364ZM445.828 131.591L445.762 131.393C445.674 131.393 445.63 131.613 445.63 132.052C445.63 132.58 445.674 132.843 445.762 132.843L445.828 132.777C445.916 132.602 445.96 132.404 445.96 132.184C445.96 132.008 445.916 131.811 445.828 131.591ZM445.499 142.665C445.499 142.621 445.455 142.577 445.367 142.533L445.301 142.467C445.257 142.467 445.235 142.599 445.235 142.863V143.126C445.235 143.214 445.257 143.28 445.301 143.324V143.39H445.367C445.499 143.302 445.564 143.17 445.564 142.995V142.797C445.521 142.753 445.499 142.709 445.499 142.665ZM445.367 152.948C445.279 152.948 445.235 153.168 445.235 153.607C445.235 154.003 445.257 154.201 445.301 154.201C445.345 154.201 445.411 154.135 445.499 154.003C445.542 153.871 445.564 153.717 445.564 153.542C445.564 153.41 445.542 153.234 445.499 153.014L445.367 152.948ZM445.499 158.683C445.499 158.463 445.455 158.354 445.367 158.354C445.323 158.354 445.301 158.881 445.301 159.936C445.301 161.034 445.323 161.627 445.367 161.715C445.455 161.715 445.499 161.627 445.499 161.452C445.542 161.056 445.564 160.595 445.564 160.067C445.564 159.584 445.542 159.123 445.499 158.683ZM443.851 161.188C443.851 161.056 443.829 160.99 443.785 160.99C443.697 160.99 443.653 161.276 443.653 161.847C443.653 162.506 443.697 162.858 443.785 162.902C443.829 162.902 443.851 162.858 443.851 162.77C443.895 162.594 443.917 162.331 443.917 161.979C443.917 161.715 443.895 161.452 443.851 161.188ZM495.267 176.679C493.641 174.613 492.344 168.944 491.377 159.672C491.158 157.299 491.048 153.432 491.048 148.07C491.048 143.632 491.114 138.798 491.246 133.568C491.377 128.339 491.553 123.659 491.773 119.528C491.861 117.243 492.015 114.254 492.234 110.563C492.454 106.828 492.63 103.202 492.762 99.6865C492.938 96.2588 493.091 93.1387 493.223 90.3262C493.399 87.4697 493.531 85.5801 493.619 84.6572C493.663 83.9541 493.685 83.4268 493.685 83.0752C493.685 82.46 493.641 82.1523 493.553 82.1523C493.245 82.1523 492.586 83.6025 491.575 86.5029C489.729 91.9961 488.016 98.8516 486.434 107.069C483.709 121.22 481.27 129.855 479.117 132.975C478.018 134.469 476.722 135.216 475.228 135.216C474.7 135.216 474.129 135.15 473.514 135.019C473.03 134.887 472.349 134.755 471.47 134.623C470.635 134.491 469.844 134.425 469.097 134.425C466.636 134.425 464.527 133.722 462.769 132.316C461.055 130.91 459.363 128.559 457.693 125.263C457.21 124.296 456.661 123.109 456.045 121.703C455.474 120.297 454.947 118.979 454.463 117.748C454.068 116.605 453.716 115.683 453.409 114.979C453.145 114.232 452.947 113.837 452.815 113.793C452.728 114.013 452.574 115.573 452.354 118.473C452.178 121.33 451.958 124.867 451.695 129.086C451.475 133.261 451.277 137.479 451.102 141.742C450.53 159.452 449.717 168.461 448.663 168.769C448.355 168.944 448.047 169.032 447.74 169.032C447.168 169.032 446.729 168.681 446.421 167.978C446.202 167.45 446.004 167.187 445.828 167.187C445.74 167.187 445.652 167.362 445.564 167.714C445.433 167.978 445.345 168.109 445.301 168.109C445.213 168.109 445.081 167.824 444.905 167.252L444.642 166.132L444.378 167.252C444.29 167.692 444.18 168 444.048 168.175C443.917 168.351 443.697 168.439 443.389 168.439L442.862 168.307C441.412 168.263 440.269 167.099 439.434 164.813C438.643 162.484 438.028 158.639 437.588 153.278C437.413 151.168 437.325 148.642 437.325 145.697C437.325 140.863 437.566 135.546 438.05 129.745C438.709 121.879 439.632 113.441 440.818 104.433C442.049 95.3799 443.301 87.272 444.576 80.1089C445.85 72.9458 446.905 68.3096 447.74 66.2002C448.091 65.3652 448.685 64.8599 449.52 64.6841H450.113C450.684 64.6841 451.189 64.772 451.629 64.9478C452.112 65.1235 452.354 65.3652 452.354 65.6729C452.354 65.9805 452.552 66.3101 452.947 66.6616C453.343 67.0132 453.716 67.189 454.068 67.189C454.288 67.189 454.441 67.2329 454.529 67.3208C454.661 67.3647 454.727 67.4526 454.727 67.5845C454.727 67.6724 454.837 67.7822 455.057 67.9141C455.276 68.002 455.54 68.0898 455.848 68.1777C456.155 68.2217 456.529 68.3755 456.968 68.6392C457.408 68.9028 457.781 69.2104 458.089 69.562C458.44 69.8257 458.704 70.1553 458.88 70.5508C459.056 70.9463 459.188 71.6274 459.275 72.5942C459.363 73.561 459.517 75.0332 459.737 77.0107V77.4722C460.704 90.0405 462.571 100.873 465.34 109.97C466.219 112.826 467.098 115.375 467.977 117.616C468.855 119.813 469.427 121 469.69 121.176C469.778 121.176 469.91 120.956 470.086 120.517C470.306 120.033 470.547 119.44 470.811 118.737C471.602 116.144 473.03 111.75 475.096 105.553C477.205 99.3569 479.38 93.0728 481.622 86.7007C483.863 80.3286 485.599 75.5825 486.829 72.4624C489.246 65.9585 491.333 62.5308 493.091 62.1792C493.707 61.9595 494.212 61.8496 494.607 61.8496C495.047 61.8496 495.442 61.9814 495.794 62.2451C496.146 62.5088 496.629 62.9482 497.244 63.5635C497.771 64.0469 498.343 64.5522 498.958 65.0796C499.617 65.6069 500.188 66.0244 500.672 66.332C502.649 67.3867 504.1 69.0347 505.022 71.2759C505.945 73.5171 506.714 77.2524 507.33 82.4819C507.769 85.6899 508.143 90.1284 508.45 95.7974C508.758 101.422 509.043 109.179 509.307 119.066C509.395 122.978 509.571 127.416 509.834 132.382C510.098 137.304 510.362 141.654 510.625 145.434C510.889 148.861 511.065 151.63 511.153 153.739C511.241 155.849 511.285 157.738 511.285 159.408C511.285 161.474 511.219 163.605 511.087 165.802C510.955 167.648 510.867 169.076 510.823 170.087C510.779 171.142 510.691 171.911 510.56 172.394C510.472 172.921 510.34 173.295 510.164 173.515C510.032 173.778 509.834 174.02 509.571 174.24C508.78 174.899 507.989 175.229 507.198 175.229C506.583 175.229 506.099 175.031 505.748 174.635C505.528 174.372 505.352 174.24 505.22 174.24C505.132 174.24 505.022 174.438 504.891 174.833C504.803 175.009 504.671 175.141 504.495 175.229C504.363 175.36 504.253 175.426 504.166 175.426L503.902 175.36C503.77 175.36 503.594 175.448 503.375 175.624C503.199 175.844 503.023 176.085 502.847 176.349C502.583 176.789 502.276 177.096 501.924 177.272C501.617 177.448 501.067 177.602 500.276 177.733C499.134 177.865 498.255 177.931 497.64 177.931C497.024 177.931 496.541 177.821 496.189 177.602C495.882 177.426 495.574 177.118 495.267 176.679ZM535.015 116.759C535.103 116.759 535.367 116.32 535.806 115.441C536.29 114.562 536.861 113.419 537.52 112.013C538.223 110.563 538.926 109.157 539.629 107.794C540.333 106.388 540.882 105.377 541.277 104.762C541.673 104.147 542.178 103.4 542.793 102.521C543.409 101.642 544.024 100.807 544.639 100.016C545.254 99.2251 545.892 98.4121 546.551 97.5771C545.936 98.1484 545.32 98.7417 544.705 99.3569C544.134 99.9282 543.497 100.675 542.793 101.598C542.09 102.521 541.453 103.422 540.882 104.301C540.179 105.487 539.366 106.981 538.443 108.783C537.564 110.585 536.773 112.277 536.07 113.859C535.367 115.441 535.015 116.386 535.015 116.693V116.759ZM554.856 119.132C554.988 119.132 555.384 118.429 556.043 117.023C556.79 115.441 557.164 114.452 557.164 114.057V113.991C557.12 113.991 556.988 114.188 556.768 114.584C556.285 115.375 555.757 116.518 555.186 118.012C554.966 118.583 554.856 118.957 554.856 119.132ZM538.904 120.055C539.036 120.055 539.366 119.374 539.893 118.012C540.464 116.605 540.75 115.705 540.75 115.309C540.618 115.309 540.267 115.99 539.695 117.353C539.168 118.715 538.904 119.594 538.904 119.989V120.055ZM533.96 120.319C534.048 120.319 534.224 119.989 534.488 119.33C534.62 118.979 534.751 118.627 534.883 118.275C535.015 117.88 535.081 117.616 535.081 117.484L535.015 117.418C534.927 117.418 534.795 117.594 534.62 117.946C534.444 118.297 534.268 118.693 534.092 119.132C533.96 119.572 533.895 119.901 533.895 120.121C533.895 120.253 533.917 120.319 533.96 120.319ZM592.627 123.747C592.715 123.747 592.825 123.659 592.957 123.483C593.089 123.263 593.177 123.065 593.221 122.89C593.309 122.67 593.353 122.472 593.353 122.296C593.353 122.165 593.331 122.099 593.287 122.099C593.243 122.099 593.133 122.23 592.957 122.494C592.825 122.714 592.715 122.934 592.627 123.153C592.54 123.329 592.496 123.483 592.496 123.615C592.496 123.703 592.54 123.747 592.627 123.747ZM537.454 124.933C537.498 124.933 537.63 124.647 537.85 124.076L538.641 121.571L538.707 120.912C538.663 120.912 538.531 121.198 538.311 121.769C538.135 122.165 537.959 122.604 537.784 123.087C537.652 123.571 537.564 123.988 537.52 124.34C537.476 124.647 537.454 124.845 537.454 124.933ZM591.771 126.054C591.858 126.054 591.968 125.944 592.1 125.724C592.276 125.504 592.386 125.285 592.43 125.065C592.518 124.845 592.562 124.669 592.562 124.538C592.562 124.45 592.54 124.406 592.496 124.406C592.408 124.406 592.298 124.516 592.166 124.735C592.034 124.955 591.924 125.175 591.836 125.395C591.749 125.614 591.705 125.79 591.705 125.922C591.705 126.01 591.727 126.054 591.771 126.054ZM592.957 126.977C593.045 126.977 593.243 126.625 593.55 125.922C594.034 124.647 594.363 123.571 594.539 122.692V122.296C594.495 122.296 594.275 122.736 593.88 123.615C593.265 125.373 592.957 126.471 592.957 126.911V126.977ZM553.472 127.306C553.516 127.306 553.67 127.086 553.934 126.647C554.197 126.164 554.505 125.548 554.856 124.801C555.252 124.01 555.56 123.285 555.779 122.626C556.043 121.967 556.175 121.549 556.175 121.374V121.308C556.043 121.308 555.604 122.165 554.856 123.878C553.934 125.724 553.472 126.845 553.472 127.24V127.306ZM591.639 130.536C591.727 130.536 591.902 130.294 592.166 129.811C592.562 128.976 592.759 128.449 592.759 128.229C592.759 128.141 592.737 128.097 592.693 128.097C592.605 128.097 592.43 128.361 592.166 128.888C591.946 129.196 591.792 129.503 591.705 129.811C591.617 130.119 591.573 130.338 591.573 130.47C591.573 130.514 591.595 130.536 591.639 130.536ZM536.004 132.052C536.048 132.008 536.092 131.964 536.136 131.92C536.18 131.833 536.202 131.679 536.202 131.459C536.202 131.327 536.158 131.195 536.07 131.063C536.026 130.932 535.96 130.866 535.872 130.866C535.828 130.866 535.806 131.042 535.806 131.393C535.85 131.833 535.916 132.052 536.004 132.052ZM538.443 134.359C538.663 134.359 541.607 129.174 547.276 118.803C549.122 115.331 551.231 111.552 553.604 107.465C554.747 105.531 555.538 104.125 555.977 103.246C556.46 102.367 556.702 101.73 556.702 101.334C556.702 101.027 556.57 100.741 556.307 100.478C555.867 99.9502 555.34 99.6865 554.725 99.6865C554.065 99.6865 553.187 100.104 552.088 100.939C549.627 102.96 547.144 106.74 544.639 112.277C542.178 117.814 540.289 123.747 538.97 130.075C538.487 132.492 538.245 133.854 538.245 134.162C538.245 134.293 538.311 134.359 538.443 134.359ZM525.259 137.589C525.391 137.589 525.589 136.623 525.853 134.689C526.072 133.546 526.336 132.25 526.644 130.8C526.951 129.306 527.259 128.009 527.566 126.911C528.401 124.01 529.39 120.912 530.533 117.616C531.719 114.32 532.884 111.53 534.026 109.245C534.773 107.487 535.147 106.498 535.147 106.278L535.015 106.476C533.741 108.19 532.334 111.024 530.796 114.979C529.302 118.935 527.984 123.021 526.841 127.24C525.699 131.459 525.127 134.601 525.127 136.667C525.127 136.798 525.127 136.996 525.127 137.26C525.127 137.479 525.171 137.589 525.259 137.589ZM560.657 139.501C560.701 139.501 560.723 139.413 560.723 139.237C560.767 139.018 560.789 138.754 560.789 138.446C560.745 138.139 560.701 137.919 560.657 137.787C560.613 137.611 560.569 137.523 560.525 137.523C560.481 137.523 560.459 137.853 560.459 138.512C560.547 139.171 560.613 139.501 560.657 139.501ZM527.303 141.874C527.435 141.874 527.61 140.863 527.83 138.842L528.489 133.568C529.412 127.899 531.038 122.077 533.367 116.1C535.081 111.53 536.927 107.641 538.904 104.433L539.893 102.851C540.86 101.269 541.343 100.368 541.343 100.148V100.082L541.146 100.148C540.486 100.631 539.366 102.213 537.784 104.894C534.136 111.002 531.236 118.231 529.083 126.581C527.764 131.811 527.105 136.007 527.105 139.171C527.105 139.655 527.127 139.984 527.171 140.16C527.171 141.215 527.215 141.786 527.303 141.874ZM560.657 147.543C560.701 147.543 560.723 147.477 560.723 147.345L560.591 143.654C560.591 142.467 560.503 141.874 560.328 141.874L560.394 144.643C560.394 144.862 560.416 145.06 560.459 145.236C560.547 146.774 560.613 147.543 560.657 147.543ZM573.313 163.166C572.786 163.166 572.083 163.034 571.204 162.77C570.369 162.506 569.534 162.177 568.699 161.781C566.678 160.902 565.14 160.463 564.085 160.463C562.195 160.463 559.866 159.254 557.098 156.837C555.296 155.124 554.263 152.157 554 147.938L553.802 144.774C553.23 145.741 552.659 146.686 552.088 147.609C551.561 148.488 550.857 149.477 549.979 150.575C549.144 151.63 548.353 152.575 547.605 153.41C544.573 156.706 541.629 158.354 538.772 158.354C536.751 158.354 534.729 157.475 532.708 155.717C531.873 154.882 530.862 154.464 529.676 154.464C528.27 154.464 526.666 153.739 524.864 152.289C523.062 150.795 521.612 149.015 520.513 146.95C519.854 145.763 519.458 144.401 519.327 142.863C519.107 140.709 518.997 138.556 518.997 136.403C518.997 134.162 519.283 131.723 519.854 129.086C521.304 122.494 523.479 116.166 526.38 110.102C529.28 103.993 532.444 99.0933 535.872 95.4019C540.442 90.6997 544.463 88.3486 547.935 88.3486C550 88.3486 551.824 89.1616 553.406 90.7876C553.934 91.271 554.571 91.9082 555.318 92.6992C556.109 93.4463 556.878 94.1934 557.625 94.9404C558.372 95.6436 558.943 96.1709 559.339 96.5225C559.778 96.8301 560.108 96.9839 560.328 96.9839C560.547 96.9839 560.767 96.8521 560.987 96.5884C561.47 96.2368 561.976 96.061 562.503 96.061C562.854 96.061 563.184 96.1489 563.492 96.3247C563.799 96.4565 563.953 96.6763 563.953 96.9839C564.129 98.3901 564.283 99.0933 564.415 99.0933C564.458 99.0933 564.502 99.0493 564.546 98.9614C564.634 98.8735 564.7 98.7856 564.744 98.6978C564.876 98.4341 565.03 98.3022 565.206 98.3022C565.337 98.3022 565.425 98.3462 565.469 98.4341C565.513 98.522 565.579 98.5879 565.667 98.6318C565.975 98.8955 566.348 99.1592 566.788 99.4229C567.403 99.8184 567.776 100.521 567.908 101.532C568.04 102.499 568.392 103.268 568.963 103.839C569.139 104.015 569.271 104.279 569.358 104.63C569.49 104.938 569.556 105.531 569.556 106.41C569.556 108.08 569.314 111.31 568.831 116.1C567.908 126.032 567.447 134.074 567.447 140.226C567.447 141.852 567.491 143.302 567.579 144.577C567.667 146.642 567.82 147.96 568.04 148.532C568.172 148.839 568.326 148.993 568.501 148.993L570.677 147.279C572.171 146.137 574.104 144.291 576.478 141.742C578.895 139.193 581.531 135.832 584.388 131.657C587.288 127.482 590.167 122.362 593.023 116.298C593.77 116.298 594.209 116.715 594.341 117.55L594.144 118.737V118.803L594.605 118.209C594.913 117.814 595.132 117.616 595.264 117.616C595.352 117.616 595.418 117.726 595.462 117.946C595.506 118.122 595.594 118.209 595.726 118.209C595.77 118.209 595.813 118.188 595.857 118.144C595.901 118.1 595.967 118.078 596.055 118.078C596.451 118.078 596.846 118.539 597.242 119.462C597.681 120.341 597.901 121.352 597.901 122.494C597.901 126.01 596.67 131.042 594.209 137.589C591.792 144.137 589.024 149.762 585.904 154.464C581.685 160.265 577.488 163.166 573.313 163.166ZM596.121 168.505C595.462 168.505 595.022 168.329 594.803 167.978C594.627 167.67 594.319 167.516 593.88 167.516L593.221 167.582C592.649 167.67 592.144 167.714 591.705 167.714C591.089 167.714 590.342 167.516 589.463 167.121C586.827 166.066 585.42 163.188 585.245 158.485L585.179 155.124C585.179 151.344 585.86 146.203 587.222 139.699C588.541 133.151 591.089 122.472 594.869 107.663C597.549 97.1157 599.747 91.4248 601.46 90.5898C601.812 90.458 602.142 90.3921 602.449 90.3921C603.108 90.3921 603.504 90.6997 603.636 91.3149C603.636 91.7983 603.79 92.04 604.097 92.04C604.405 92.04 604.581 92.1499 604.625 92.3696C604.668 92.5894 604.778 92.6992 604.954 92.6992L605.218 92.6333C605.569 92.6333 605.921 92.7651 606.272 93.0288C606.624 93.2925 606.976 93.4243 607.327 93.4243C607.723 93.4243 608.096 93.6221 608.448 94.0176C609.371 94.9404 609.898 95.8853 610.03 96.8521C610.03 98.6099 608.909 103.532 606.668 111.618C605.438 116.1 604.339 120.385 603.372 124.472C602.449 128.515 601.988 130.932 601.988 131.723C601.988 131.811 602.01 131.854 602.054 131.854C602.229 131.854 602.493 131.415 602.845 130.536C603.24 129.613 604.163 127.724 605.613 124.867C609.261 117.616 612.029 112.277 613.919 108.849C622.576 93.8198 629.607 86.3052 635.013 86.3052C635.892 86.3052 636.617 86.481 637.188 86.8325C637.803 87.1841 638.638 87.9092 639.693 89.0078C640.748 90.1064 641.692 90.8975 642.527 91.3809C643.23 91.7324 643.934 92.3696 644.637 93.2925C645.647 94.4351 646.153 96.6763 646.153 100.016C646.153 101.994 645.977 104.499 645.625 107.531C644.966 114.254 644.637 120.604 644.637 126.581C644.637 131.898 644.944 136.93 645.56 141.676C645.911 144.049 646.219 145.412 646.482 145.763C646.702 145.763 647.339 144.862 648.394 143.061C649.493 141.259 650.745 139.083 652.151 136.535C653.602 133.942 655.03 131.371 656.436 128.822L659.666 122.956C661.512 119.704 662.632 118.078 663.028 118.078C663.16 118.078 663.226 118.188 663.226 118.407C663.226 118.583 663.248 118.693 663.292 118.737C663.379 118.781 663.533 118.803 663.753 118.803L664.28 118.737C664.632 118.737 664.83 119.022 664.874 119.594C664.874 120.956 663.885 123.922 661.907 128.493C660.765 131.217 659.424 134.25 657.886 137.589C656.392 140.929 654.942 143.917 653.536 146.554C652.129 149.147 651.031 150.729 650.24 151.3C649.625 151.652 648.921 151.828 648.13 151.828C647.208 151.828 646.285 151.586 645.362 151.103C644.483 150.619 643.78 150.377 643.252 150.377C642.725 150.377 641.868 150.048 640.682 149.389C639.539 148.729 638.528 147.96 637.649 147.082C634.134 143.742 632.376 138.336 632.376 130.866C632.376 127.658 632.574 124.296 632.969 120.78C633.365 117.221 634.112 111.969 635.21 105.026C635.518 103.18 635.672 101.84 635.672 101.005L635.606 100.939C635.474 100.939 634.903 101.51 633.892 102.653C632.881 103.751 631.739 105.092 630.464 106.674C629.19 108.256 628.025 109.816 626.971 111.354C620.115 120.495 613.106 134.447 605.943 153.212C605.152 155.277 604.493 156.925 603.965 158.156C603.482 159.342 603.064 160.221 602.713 160.792C602.405 161.364 602.098 161.737 601.79 161.913C601.482 162.089 601.087 162.199 600.604 162.243C600.164 162.243 599.703 162.265 599.219 162.309C599 163.231 598.78 164.132 598.56 165.011C598.34 165.846 598.121 166.549 597.901 167.121C597.681 167.692 597.505 168.043 597.374 168.175C597.022 168.395 596.604 168.505 596.121 168.505ZM591.507 162.704V161.056C591.507 160.617 591.463 160.177 591.375 159.738L591.309 159.408C591.265 159.408 591.243 159.54 591.243 159.804L591.309 161.056C591.397 162.155 591.463 162.704 591.507 162.704ZM593.155 160.595C593.375 160.463 593.484 160.265 593.484 160.001C593.484 159.738 593.375 159.606 593.155 159.606C593.067 159.606 593.001 159.65 592.957 159.738C592.913 159.826 592.891 159.958 592.891 160.133C592.891 160.441 592.957 160.595 593.089 160.595H593.155ZM593.484 152.948C593.616 152.948 594.012 150.443 594.671 145.434C594.935 143.324 595.264 141.105 595.66 138.776C596.055 136.403 596.407 134.469 596.714 132.975C597.374 129.723 598.296 125.636 599.483 120.714C600.713 115.792 601.768 111.859 602.647 108.915C603.35 106.586 603.702 105.29 603.702 105.026L603.636 104.96L603.504 105.158C602.933 105.949 601.504 110.871 599.219 119.923C597.242 127.57 595.77 134.601 594.803 141.017C594.144 145.192 593.726 148.62 593.55 151.3L593.484 152.948ZM593.221 141.083C593.221 141.039 593.243 141.017 593.287 141.017C593.331 140.973 593.353 140.863 593.353 140.688C593.309 140.38 593.243 140.226 593.155 140.226C593.111 140.226 593.089 140.336 593.089 140.556C593.133 140.907 593.177 141.083 593.221 141.083ZM593.484 139.699C593.572 139.611 593.616 139.479 593.616 139.303C593.572 139.215 593.55 139.149 593.55 139.105C593.55 139.018 593.528 138.952 593.484 138.908C593.484 138.82 593.44 138.776 593.353 138.776V139.171C593.353 139.523 593.396 139.699 593.484 139.699ZM593.748 137.589C593.836 137.589 594.429 134.997 595.528 129.811C595.967 127.877 596.187 126.669 596.187 126.186L596.121 126.12C596.033 126.251 595.879 126.779 595.66 127.702C595.132 129.811 594.627 132.118 594.144 134.623C593.88 136.073 593.748 137.062 593.748 137.589ZM638.111 134.821L638.177 134.755C638.265 134.403 638.309 133.744 638.309 132.777V130.272C638.309 128.734 638.353 126.955 638.44 124.933L638.77 117.616L638.704 117.55C638.133 121.813 637.847 126.405 637.847 131.327C637.847 133.612 637.935 134.777 638.111 134.821ZM638.968 116.759L639.034 116.627C639.078 116.54 639.1 116.408 639.1 116.232L638.902 115.639C638.858 115.639 638.836 115.705 638.836 115.836V116.232C638.88 116.583 638.924 116.759 638.968 116.759ZM671.729 116.759C671.817 116.759 672.081 116.32 672.52 115.441C673.003 114.562 673.575 113.419 674.234 112.013C674.937 110.563 675.64 109.157 676.343 107.794C677.046 106.388 677.596 105.377 677.991 104.762C678.387 104.147 678.892 103.4 679.507 102.521C680.123 101.642 680.738 100.807 681.353 100.016C681.968 99.2251 682.605 98.4121 683.265 97.5771C682.649 98.1484 682.034 98.7417 681.419 99.3569C680.848 99.9282 680.21 100.675 679.507 101.598C678.804 102.521 678.167 103.422 677.596 104.301C676.893 105.487 676.08 106.981 675.157 108.783C674.278 110.585 673.487 112.277 672.784 113.859C672.081 115.441 671.729 116.386 671.729 116.693V116.759ZM691.57 119.132C691.702 119.132 692.098 118.429 692.757 117.023C693.504 115.441 693.877 114.452 693.877 114.057V113.991C693.833 113.991 693.702 114.188 693.482 114.584C692.999 115.375 692.471 116.518 691.9 118.012C691.68 118.583 691.57 118.957 691.57 119.132ZM675.618 120.055C675.75 120.055 676.08 119.374 676.607 118.012C677.178 116.605 677.464 115.705 677.464 115.309C677.332 115.309 676.98 115.99 676.409 117.353C675.882 118.715 675.618 119.594 675.618 119.989V120.055ZM670.674 120.319C670.762 120.319 670.938 119.989 671.202 119.33C671.333 118.979 671.465 118.627 671.597 118.275C671.729 117.88 671.795 117.616 671.795 117.484L671.729 117.418C671.641 117.418 671.509 117.594 671.333 117.946C671.158 118.297 670.982 118.693 670.806 119.132C670.674 119.572 670.608 119.901 670.608 120.121C670.608 120.253 670.63 120.319 670.674 120.319ZM729.341 123.747C729.429 123.747 729.539 123.659 729.671 123.483C729.803 123.263 729.891 123.065 729.935 122.89C730.022 122.67 730.066 122.472 730.066 122.296C730.066 122.165 730.044 122.099 730 122.099C729.957 122.099 729.847 122.23 729.671 122.494C729.539 122.714 729.429 122.934 729.341 123.153C729.253 123.329 729.209 123.483 729.209 123.615C729.209 123.703 729.253 123.747 729.341 123.747ZM674.168 124.933C674.212 124.933 674.344 124.647 674.563 124.076L675.354 121.571L675.42 120.912C675.376 120.912 675.245 121.198 675.025 121.769C674.849 122.165 674.673 122.604 674.498 123.087C674.366 123.571 674.278 123.988 674.234 124.34C674.19 124.647 674.168 124.845 674.168 124.933ZM728.484 126.054C728.572 126.054 728.682 125.944 728.814 125.724C728.99 125.504 729.1 125.285 729.144 125.065C729.231 124.845 729.275 124.669 729.275 124.538C729.275 124.45 729.253 124.406 729.209 124.406C729.122 124.406 729.012 124.516 728.88 124.735C728.748 124.955 728.638 125.175 728.55 125.395C728.462 125.614 728.418 125.79 728.418 125.922C728.418 126.01 728.44 126.054 728.484 126.054ZM729.671 126.977C729.759 126.977 729.957 126.625 730.264 125.922C730.748 124.647 731.077 123.571 731.253 122.692V122.296C731.209 122.296 730.989 122.736 730.594 123.615C729.979 125.373 729.671 126.471 729.671 126.911V126.977ZM690.186 127.306C690.23 127.306 690.384 127.086 690.647 126.647C690.911 126.164 691.219 125.548 691.57 124.801C691.966 124.01 692.273 123.285 692.493 122.626C692.757 121.967 692.889 121.549 692.889 121.374V121.308C692.757 121.308 692.317 122.165 691.57 123.878C690.647 125.724 690.186 126.845 690.186 127.24V127.306ZM728.353 130.536C728.44 130.536 728.616 130.294 728.88 129.811C729.275 128.976 729.473 128.449 729.473 128.229C729.473 128.141 729.451 128.097 729.407 128.097C729.319 128.097 729.144 128.361 728.88 128.888C728.66 129.196 728.506 129.503 728.418 129.811C728.331 130.119 728.287 130.338 728.287 130.47C728.287 130.514 728.309 130.536 728.353 130.536ZM672.718 132.052C672.762 132.008 672.806 131.964 672.85 131.92C672.894 131.833 672.916 131.679 672.916 131.459C672.916 131.327 672.872 131.195 672.784 131.063C672.74 130.932 672.674 130.866 672.586 130.866C672.542 130.866 672.52 131.042 672.52 131.393C672.564 131.833 672.63 132.052 672.718 132.052ZM675.157 134.359C675.376 134.359 678.321 129.174 683.99 118.803C685.835 115.331 687.945 111.552 690.318 107.465C691.46 105.531 692.251 104.125 692.691 103.246C693.174 102.367 693.416 101.73 693.416 101.334C693.416 101.027 693.284 100.741 693.021 100.478C692.581 99.9502 692.054 99.6865 691.438 99.6865C690.779 99.6865 689.9 100.104 688.802 100.939C686.341 102.96 683.858 106.74 681.353 112.277C678.892 117.814 677.002 123.747 675.684 130.075C675.201 132.492 674.959 133.854 674.959 134.162C674.959 134.293 675.025 134.359 675.157 134.359ZM661.973 137.589C662.105 137.589 662.303 136.623 662.566 134.689C662.786 133.546 663.05 132.25 663.357 130.8C663.665 129.306 663.973 128.009 664.28 126.911C665.115 124.01 666.104 120.912 667.247 117.616C668.433 114.32 669.598 111.53 670.74 109.245C671.487 107.487 671.861 106.498 671.861 106.278L671.729 106.476C670.455 108.19 669.048 111.024 667.51 114.979C666.016 118.935 664.698 123.021 663.555 127.24C662.413 131.459 661.841 134.601 661.841 136.667C661.841 136.798 661.841 136.996 661.841 137.26C661.841 137.479 661.885 137.589 661.973 137.589ZM697.371 139.501C697.415 139.501 697.437 139.413 697.437 139.237C697.481 139.018 697.503 138.754 697.503 138.446C697.459 138.139 697.415 137.919 697.371 137.787C697.327 137.611 697.283 137.523 697.239 137.523C697.195 137.523 697.173 137.853 697.173 138.512C697.261 139.171 697.327 139.501 697.371 139.501ZM664.017 141.874C664.148 141.874 664.324 140.863 664.544 138.842L665.203 133.568C666.126 127.899 667.752 122.077 670.081 116.1C671.795 111.53 673.641 107.641 675.618 104.433L676.607 102.851C677.574 101.269 678.057 100.368 678.057 100.148V100.082L677.859 100.148C677.2 100.631 676.08 102.213 674.498 104.894C670.85 111.002 667.95 118.231 665.796 126.581C664.478 131.811 663.819 136.007 663.819 139.171C663.819 139.655 663.841 139.984 663.885 140.16C663.885 141.215 663.929 141.786 664.017 141.874ZM697.371 147.543C697.415 147.543 697.437 147.477 697.437 147.345L697.305 143.654C697.305 142.467 697.217 141.874 697.042 141.874L697.107 144.643C697.107 144.862 697.129 145.06 697.173 145.236C697.261 146.774 697.327 147.543 697.371 147.543ZM710.027 163.166C709.5 163.166 708.797 163.034 707.918 162.77C707.083 162.506 706.248 162.177 705.413 161.781C703.392 160.902 701.854 160.463 700.799 160.463C698.909 160.463 696.58 159.254 693.812 156.837C692.01 155.124 690.977 152.157 690.713 147.938L690.516 144.774C689.944 145.741 689.373 146.686 688.802 147.609C688.274 148.488 687.571 149.477 686.692 150.575C685.857 151.63 685.066 152.575 684.319 153.41C681.287 156.706 678.343 158.354 675.486 158.354C673.465 158.354 671.443 157.475 669.422 155.717C668.587 154.882 667.576 154.464 666.39 154.464C664.983 154.464 663.379 153.739 661.578 152.289C659.776 150.795 658.326 149.015 657.227 146.95C656.568 145.763 656.172 144.401 656.041 142.863C655.821 140.709 655.711 138.556 655.711 136.403C655.711 134.162 655.997 131.723 656.568 129.086C658.018 122.494 660.193 116.166 663.094 110.102C665.994 103.993 669.158 99.0933 672.586 95.4019C677.156 90.6997 681.177 88.3486 684.649 88.3486C686.714 88.3486 688.538 89.1616 690.12 90.7876C690.647 91.271 691.285 91.9082 692.032 92.6992C692.823 93.4463 693.592 94.1934 694.339 94.9404C695.086 95.6436 695.657 96.1709 696.053 96.5225C696.492 96.8301 696.822 96.9839 697.042 96.9839C697.261 96.9839 697.481 96.8521 697.701 96.5884C698.184 96.2368 698.689 96.061 699.217 96.061C699.568 96.061 699.898 96.1489 700.206 96.3247C700.513 96.4565 700.667 96.6763 700.667 96.9839C700.843 98.3901 700.997 99.0933 701.128 99.0933C701.172 99.0933 701.216 99.0493 701.26 98.9614C701.348 98.8735 701.414 98.7856 701.458 98.6978C701.59 98.4341 701.744 98.3022 701.919 98.3022C702.051 98.3022 702.139 98.3462 702.183 98.4341C702.227 98.522 702.293 98.5879 702.381 98.6318C702.688 98.8955 703.062 99.1592 703.501 99.4229C704.117 99.8184 704.49 100.521 704.622 101.532C704.754 102.499 705.105 103.268 705.677 103.839C705.853 104.015 705.984 104.279 706.072 104.63C706.204 104.938 706.27 105.531 706.27 106.41C706.27 108.08 706.028 111.31 705.545 116.1C704.622 126.032 704.161 134.074 704.161 140.226C704.161 141.852 704.205 143.302 704.292 144.577C704.38 146.642 704.534 147.96 704.754 148.532C704.886 148.839 705.04 148.993 705.215 148.993L707.391 147.279C708.885 146.137 710.818 144.291 713.191 141.742C715.608 139.193 718.245 135.832 721.102 131.657C724.002 127.482 726.88 122.362 729.737 116.298C730.484 116.298 730.923 116.715 731.055 117.55L730.857 118.737V118.803L731.319 118.209C731.626 117.814 731.846 117.616 731.978 117.616C732.066 117.616 732.132 117.726 732.176 117.946C732.22 118.122 732.308 118.209 732.439 118.209C732.483 118.209 732.527 118.188 732.571 118.144C732.615 118.1 732.681 118.078 732.769 118.078C733.165 118.078 733.56 118.539 733.956 119.462C734.395 120.341 734.615 121.352 734.615 122.494C734.615 126.01 733.384 131.042 730.923 137.589C728.506 144.137 725.738 149.762 722.618 154.464C718.399 160.265 714.202 163.166 710.027 163.166ZM741.8 109.838C741.8 109.882 741.954 109.662 742.261 109.179L746.875 101.203C746.788 101.203 746.502 101.488 746.019 102.06C745.315 102.895 744.524 104.081 743.646 105.619C742.811 107.157 742.239 108.388 741.932 109.311L741.8 109.838ZM743.975 114.452C744.063 114.452 744.261 114.035 744.568 113.2L744.898 112.475C744.854 112.475 744.7 112.65 744.437 113.002C744.085 113.573 743.909 113.969 743.909 114.188C743.909 114.364 743.931 114.452 743.975 114.452ZM735.801 114.716C735.889 114.716 736.592 113.244 737.911 110.299C739.449 106.872 740.459 104.74 740.943 103.905C741.294 103.202 741.47 102.785 741.47 102.653L741.207 102.785C740.811 103.18 739.822 105.136 738.24 108.651C736.658 112.123 735.845 114.145 735.801 114.716ZM762.498 115.705C762.63 115.705 763.355 114.43 764.673 111.881C766.036 109.289 766.739 107.838 766.783 107.531C766.695 107.531 766.189 108.388 765.267 110.102L763.025 114.386C762.63 115.089 762.432 115.507 762.432 115.639L762.498 115.705ZM761.048 118.605C761.18 118.605 761.443 118.188 761.839 117.353C762.103 116.737 762.234 116.342 762.234 116.166C762.234 116.122 762.212 116.1 762.168 116.1C762.081 116.1 761.839 116.518 761.443 117.353C761.136 117.924 760.982 118.319 760.982 118.539L761.048 118.605ZM754.917 133.239C755.005 133.239 755.357 132.711 755.972 131.657C756.631 130.558 757.378 129.24 758.213 127.702C760.411 123.659 762.344 119.967 764.014 116.627C765.684 113.244 766.563 111.31 766.651 110.827C766.475 110.827 766.124 111.376 765.596 112.475L755.577 131.789C755.137 132.667 754.917 133.151 754.917 133.239ZM730.594 139.105C730.726 139.105 731.099 137.809 731.714 135.216C732.022 133.854 732.439 132.228 732.967 130.338C734.681 124.098 736.658 118.188 738.899 112.606C740.438 108.651 741.844 105.597 743.118 103.444C743.953 102.082 744.371 101.312 744.371 101.137C744.283 101.137 743.953 101.488 743.382 102.191C741.756 104.345 739.844 108.3 737.647 114.057C735.494 119.813 733.56 126.142 731.846 133.041C731.011 136.337 730.594 138.336 730.594 139.04V139.105ZM738.833 142.204C738.921 142.204 739.646 141.281 741.009 139.435C744.48 134.557 748.062 129.152 751.753 123.219C753.599 120.231 754.522 118.539 754.522 118.144C754.522 117.88 754.39 117.682 754.126 117.55C753.863 117.506 753.731 117.089 753.731 116.298L753.863 113.727C753.863 111.53 753.665 109.289 753.27 107.003C753.094 105.773 752.874 105.158 752.61 105.158C752.259 105.158 751.666 105.619 750.831 106.542C749.996 107.421 749.205 108.498 748.458 109.772C747.535 111.354 746.502 113.595 745.359 116.496C744.217 119.396 743.184 122.362 742.261 125.395C741.382 128.383 740.569 131.613 739.822 135.084C739.075 138.556 738.702 140.797 738.702 141.808C738.702 142.072 738.746 142.204 738.833 142.204ZM762.828 153.739C762.916 153.739 763.267 152.926 763.882 151.3C764.41 149.894 764.915 148.224 765.398 146.291C766.014 143.61 766.321 141.94 766.321 141.281V141.083C766.233 141.083 766.124 141.281 765.992 141.676C765.86 142.072 765.552 143.192 765.069 145.038L762.894 153.278L762.828 153.739ZM771.331 158.288C771.375 158.288 771.441 158.178 771.529 157.958C771.661 157.738 771.749 157.453 771.792 157.101C771.88 156.75 771.924 156.398 771.924 156.046C771.924 155.431 771.902 155.124 771.858 155.124C771.814 155.124 771.727 155.365 771.595 155.849C771.375 156.728 771.265 157.365 771.265 157.76C771.265 158.112 771.287 158.288 771.331 158.288ZM763.157 158.683C763.289 158.683 763.882 157.255 764.937 154.398C766.695 149.608 767.75 145.5 768.101 142.072L768.167 141.083C768.167 140.951 768.145 140.885 768.101 140.885C768.057 140.885 767.793 141.808 767.31 143.654C766.827 145.763 765.926 148.971 764.607 153.278C763.641 156.486 763.157 158.266 763.157 158.617V158.683ZM764.673 161.452C764.849 161.408 765.333 160.507 766.124 158.749C766.871 157.123 767.442 155.431 767.837 153.673C768.101 152.575 768.233 151.85 768.233 151.498L768.167 151.3L768.101 151.366C767.969 151.586 767.134 153.937 765.596 158.419C764.981 160.309 764.673 161.32 764.673 161.452ZM732.11 201.728C730 201.728 728.353 201.706 727.166 201.662C725.979 201.618 725.013 201.53 724.266 201.398C723.519 201.266 722.75 201.068 721.958 200.805C718.091 199.486 716.158 198.058 716.158 196.52C716.158 195.729 716.312 195.136 716.619 194.74C716.927 194.389 717.586 194.125 718.597 193.949C719.563 193.817 721.036 193.729 723.013 193.686C724.727 193.642 726.023 193.576 726.902 193.488C727.737 193.444 728.44 193.312 729.012 193.092C735.735 190.543 742.942 181.381 750.633 165.604C752.435 161.957 754.368 157.475 756.434 152.157C758.499 146.796 760.301 141.786 761.839 137.128C763.421 132.47 764.212 129.547 764.212 128.361C764.212 128.229 764.19 128.141 764.146 128.097C764.146 128.053 764.124 128.031 764.08 128.031C763.86 128.031 762.959 129.723 761.377 133.107C758.741 138.82 756.346 143.412 754.192 146.884C752.083 150.355 749.82 153.432 747.403 156.112C745.689 158.046 744.217 159.386 742.986 160.133C741.8 160.836 740.481 161.188 739.031 161.188C738.196 161.188 737.515 161.122 736.988 160.99C736.504 160.814 735.933 160.463 735.274 159.936C734.219 159.188 733.406 158.397 732.835 157.562C732.308 156.684 731.736 156.244 731.121 156.244C729.671 156.244 728.067 155.124 726.309 152.882C725.035 151.344 724.178 149.916 723.738 148.598C723.299 147.279 723.079 145.543 723.079 143.39C723.079 140.446 723.606 136.974 724.661 132.975C725.672 128.976 727.474 123.395 730.066 116.232C732.22 110.167 734.043 105.597 735.538 102.521C737.076 99.4009 738.746 96.8521 740.547 94.8745C743.008 91.9741 745.359 90.5239 747.601 90.5239C749.798 90.5239 751.907 91.9521 753.929 94.8086C755.027 96.4346 755.972 97.5991 756.763 98.3022C757.554 98.9614 758.345 99.9502 759.136 101.269C759.927 102.543 760.521 103.817 760.916 105.092L761.509 107.135L764.542 102.389C765.376 101.071 766.08 99.8843 766.651 98.8296C767.222 97.731 767.508 97.0718 767.508 96.8521C767.508 96.3687 767.64 95.9512 767.903 95.5996C768.211 95.2041 768.541 95.0063 768.892 95.0063C769.024 95.0063 769.31 95.2261 769.749 95.6655C770.232 96.061 771.507 97.3794 773.572 99.6206L773.836 103.246C774.012 105.531 774.297 108.651 774.693 112.606C775.264 119.066 775.55 125.988 775.55 133.371C775.55 142.116 775.154 149.542 774.363 155.651C773.44 161.012 771.441 166.769 768.365 172.921C765.333 179.118 761.685 184.721 757.422 189.73C753.995 193.729 750.413 196.784 746.678 198.893C744.568 200.124 742.657 200.893 740.943 201.2C739.273 201.552 736.329 201.728 732.11 201.728ZM794.996 100.741C795.127 100.741 795.853 99.8403 797.171 98.0386C798.357 96.4126 798.951 95.4458 798.951 95.1382V95.0723C798.819 95.0723 798.555 95.314 798.16 95.7974C797.808 96.2368 797.391 96.8081 796.907 97.5112C796.424 98.1704 795.984 98.8516 795.589 99.5547C795.193 100.214 794.996 100.609 794.996 100.741ZM799.874 101.137C800.093 101.137 801.368 99.5986 803.697 96.5225C804.356 95.7314 804.686 95.27 804.686 95.1382H804.62C804.576 95.1382 804.356 95.27 803.96 95.5337C803.345 96.0171 802.62 96.7861 801.785 97.8408C800.774 99.2031 800.115 100.28 799.808 101.071L799.874 101.137ZM802.576 105.158C802.62 105.158 802.686 105.136 802.774 105.092C802.906 105.004 803.06 104.85 803.235 104.63C803.411 104.367 803.565 104.081 803.697 103.773C803.829 103.466 803.895 103.268 803.895 103.18L803.829 103.114C803.697 103.114 803.499 103.312 803.235 103.708C802.752 104.367 802.51 104.828 802.51 105.092C802.51 105.136 802.532 105.158 802.576 105.158ZM795.062 105.224C795.105 105.224 795.237 105.07 795.457 104.762C795.984 104.015 796.819 102.653 797.962 100.675C799.28 98.478 800.665 96.3467 802.115 94.2812L800.401 96.061C799.522 97.0278 798.511 98.4341 797.369 100.28C796.27 102.125 795.501 103.773 795.062 105.224ZM811.805 117.55L812.002 117.484C812.53 116.957 813.035 116.342 813.519 115.639C814.002 114.892 814.244 114.452 814.244 114.32C814.112 114.32 813.562 114.936 812.596 116.166C812.068 116.957 811.805 117.418 811.805 117.55ZM799.346 120.055C799.742 120.055 801.434 118.869 804.422 116.496C807.059 114.562 808.948 113.046 810.091 111.947C811.277 110.849 812.244 109.684 812.991 108.454C813.694 107.399 814.332 105.993 814.903 104.235C815.518 102.433 815.826 101.137 815.826 100.346C815.826 99.7305 815.21 99.4229 813.98 99.4229C812.31 99.4229 810.926 99.7305 809.827 100.346C805.784 102.982 802.269 109.267 799.28 119.198L799.148 119.792C799.148 119.923 799.214 120.011 799.346 120.055ZM809.432 122.033L809.629 121.967C809.893 121.835 810.289 121.527 810.816 121.044C811.343 120.561 811.871 120.055 812.398 119.528C812.925 118.957 813.431 118.341 813.914 117.682C814.397 117.023 814.749 116.452 814.969 115.968C815.188 115.485 815.298 115.199 815.298 115.111V115.045C815.21 115.045 814.793 115.529 814.046 116.496C813.079 117.858 811.937 119.198 810.618 120.517C809.827 121.396 809.432 121.901 809.432 122.033ZM809.366 124.801C809.454 124.801 809.673 124.691 810.025 124.472C810.376 124.252 810.794 123.922 811.277 123.483C811.805 123.043 812.266 122.582 812.662 122.099C813.233 121.439 813.519 121.066 813.519 120.978L813.453 120.912C813.233 120.912 812.288 121.703 810.618 123.285C809.783 124.164 809.366 124.647 809.366 124.735V124.801ZM810.025 159.672C807.959 159.672 806.136 159.408 804.554 158.881C803.147 158.31 801.873 157.628 800.73 156.837C799.808 156.134 798.665 155.497 797.303 154.926C795.018 154.003 792.82 152.509 790.711 150.443C787.151 146.972 784.932 142.709 784.053 137.655C783.658 135.546 783.46 132.953 783.46 129.877L783.526 126.977C783.658 119.198 784.998 111.706 787.547 104.499C790.667 95.314 794.908 89.2275 800.269 86.2393C802.686 84.877 804.971 84.1958 807.125 84.1958C811.036 84.1958 814.266 86.481 816.814 91.0513C817.605 92.6772 818.309 93.7539 818.924 94.2812C819.671 95.1602 820.418 96.5884 821.165 98.5659C821.912 100.543 822.286 102.038 822.286 103.048C822.286 103.356 822.242 103.576 822.154 103.708C821.89 104.191 821.626 106.168 821.363 109.64C821.011 113.859 820.44 117.309 819.649 119.989C816.88 129.13 810.948 133.92 801.851 134.359L797.764 134.689L798.16 139.04C798.204 140.49 798.357 141.962 798.621 143.456C799.192 146.4 801.5 147.873 805.542 147.873C811.343 147.873 818.396 143.961 826.702 136.139C831.976 131.129 836.832 125.834 841.27 120.253C841.929 119.418 842.281 119 842.325 119C842.632 119.264 842.786 119.616 842.786 120.055C842.786 120.539 842.61 121.022 842.259 121.505L842.127 121.703C842.215 121.703 842.413 121.549 842.72 121.242C843.072 120.89 843.313 120.714 843.445 120.714C843.533 120.714 843.577 120.758 843.577 120.846C843.577 121.198 843.094 122.143 842.127 123.681C841.38 124.867 841.006 125.548 841.006 125.724V125.79H841.072C841.38 125.57 841.973 124.735 842.852 123.285C843.731 121.791 844.258 121.044 844.434 121.044C844.566 121.044 844.72 121.242 844.896 121.637C845.115 122.033 845.291 122.494 845.423 123.021C845.599 123.505 845.687 123.922 845.687 124.274C845.599 125.592 844.61 127.899 842.72 131.195C840.831 134.447 838.304 138.183 835.14 142.401C828.196 151.762 821.473 157.321 814.969 159.079C813.431 159.474 811.783 159.672 810.025 159.672ZM851.421 159.87C850.674 159.87 850.015 159.628 849.444 159.145C848.96 158.617 848.411 158.354 847.796 158.354C847.356 158.354 846.807 158.485 846.148 158.749C845.796 158.925 845.467 159.013 845.159 159.013C844.808 159.013 844.017 158.705 842.786 158.09C841.6 157.475 840.765 156.64 840.281 155.585C839.798 154.53 839.534 152.794 839.49 150.377C839.49 146.071 839.886 140.314 840.677 133.107C841.468 125.856 842.391 118.825 843.445 112.013C844.5 105.202 845.467 100.324 846.346 97.3794C847.137 94.7866 847.818 93.0068 848.389 92.04C849.004 91.0732 849.751 90.5898 850.63 90.5898L851.026 90.6558C851.553 90.6558 851.905 90.7437 852.081 90.9194C852.3 91.0513 852.432 91.271 852.476 91.5786C852.52 91.8862 852.586 92.1499 852.674 92.3696C852.806 92.5454 852.938 92.6772 853.069 92.7651C853.201 92.8091 853.311 92.9189 853.399 93.0947C853.487 93.2266 853.531 93.3804 853.531 93.5562C853.531 93.7319 853.663 93.8198 853.926 93.8198L854.52 93.688C854.783 93.688 854.915 93.9297 854.915 94.4131C854.915 94.8525 854.937 95.0723 854.981 95.0723C855.069 95.0723 855.157 94.9624 855.245 94.7427C855.376 94.5229 855.486 94.4131 855.574 94.4131C855.618 94.4131 855.684 94.501 855.772 94.6768C855.86 94.8525 855.948 94.9844 856.036 95.0723C856.167 95.1602 856.255 95.2041 856.299 95.2041L856.629 95.1382C856.98 95.1382 857.156 95.27 857.156 95.5337C857.156 95.7534 857.112 96.061 857.024 96.4565C856.98 96.8081 856.958 97.0498 856.958 97.1816C856.958 97.2695 856.98 97.3135 857.024 97.3135C857.068 97.3135 857.134 97.2036 857.222 96.9839C857.31 96.7642 857.42 96.6104 857.552 96.5225C857.728 96.3906 857.859 96.3247 857.947 96.3247C858.123 96.3247 858.211 96.6323 858.211 97.2476C858.211 98.478 857.881 100.939 857.222 104.63C855.948 111.793 855.311 115.946 855.311 117.089C855.398 117.089 855.596 116.847 855.904 116.364C856.255 115.836 856.629 115.155 857.024 114.32C858.958 110.717 861.265 106.959 863.946 103.048C866.67 99.1372 869.285 95.7754 871.79 92.9629C873.636 90.9414 875.042 89.9307 876.009 89.9307C876.668 89.9307 877.195 90.3701 877.591 91.249C877.854 91.9082 878.426 92.6333 879.305 93.4243C880.579 94.6108 881.458 96.2808 881.941 98.4341C882.469 101.071 882.864 102.389 883.128 102.389C883.26 102.389 884.139 101.686 885.765 100.28C886.468 99.5767 887.347 98.8296 888.401 98.0386C889.456 97.2476 890.247 96.8521 890.774 96.8521C891.258 96.8521 891.5 97.0278 891.5 97.3794C891.5 97.5991 891.368 97.8848 891.104 98.2363C890.884 98.5439 890.774 98.7637 890.774 98.8955C890.774 98.9834 890.818 99.0273 890.906 99.0273C891.038 99.0273 891.258 98.8516 891.565 98.5L891.763 98.4341C891.763 98.6099 891.478 99.2471 890.906 100.346L891.763 99.291C892.115 98.7637 892.378 98.5 892.554 98.5C892.642 98.5 892.73 98.6099 892.818 98.8296C892.906 99.0054 892.95 99.2251 892.95 99.4888C892.95 100.763 892.334 102.433 891.104 104.499C889.874 106.564 888.423 108.322 886.753 109.772C885.918 110.563 885.149 110.958 884.446 110.958C883.392 110.958 882.051 109.904 880.425 107.794C878.667 105.729 877.481 103.993 876.866 102.587C876.426 101.444 876.097 100.873 875.877 100.873C875.789 100.873 875.723 100.917 875.679 101.005C874.581 103.114 872.823 107.443 870.406 113.991C867.989 120.539 866.165 125.351 864.935 128.427C862.21 135.546 859.354 143.456 856.365 152.157C855.135 155.717 854.3 157.914 853.86 158.749C853.245 159.496 852.432 159.87 851.421 159.87ZM845.555 146.093C845.73 145.829 845.972 143.588 846.28 139.369C846.807 133.524 847.269 128.888 847.664 125.46C848.06 121.593 848.257 119.176 848.257 118.209C848.257 117.858 848.235 117.682 848.191 117.682C848.06 117.682 847.84 118.869 847.532 121.242C846.17 132.184 845.489 140.16 845.489 145.17C845.489 145.785 845.511 146.093 845.555 146.093ZM847.862 137.458C848.125 135.832 848.279 134.667 848.323 133.964C848.367 133.217 848.389 132.536 848.389 131.92V129.811L848.125 132.118C847.95 133.656 847.862 134.931 847.862 135.941V137.458ZM844.896 136.073C845.027 136.073 845.093 135.941 845.093 135.678C845.093 135.326 845.027 135.15 844.896 135.15C844.852 135.15 844.83 135.326 844.83 135.678C844.83 135.941 844.852 136.073 844.896 136.073ZM845.291 130.734C845.379 130.734 845.599 129.218 845.95 126.186C846.434 122.274 846.675 119.901 846.675 119.066V118.869C846.543 118.869 846.302 120.341 845.95 123.285C845.599 126.186 845.379 128.493 845.291 130.207V130.734ZM862.034 120.78C862.21 120.78 863.089 119.022 864.671 115.507C867.615 109.179 870.098 104.279 872.12 100.807C872.823 99.5767 873.174 98.8516 873.174 98.6318V98.5659C873.086 98.5659 872.911 98.7637 872.647 99.1592C872.208 99.8184 871.175 101.686 869.549 104.762C868.538 106.608 867.044 109.64 865.066 113.859C863.089 118.078 862.078 120.385 862.034 120.78ZM873.438 98.2363C873.57 98.2363 873.768 98.0386 874.031 97.6431L874.427 97.1157C874.383 97.1157 874.229 97.2256 873.965 97.4453C873.877 97.5332 873.746 97.665 873.57 97.8408C873.438 97.9727 873.372 98.0605 873.372 98.1045C873.372 98.1924 873.394 98.2363 873.438 98.2363Z" fill="white"/>
</g>
<defs>
<clipPath id="clip0_7_18">
<rect width="895" height="258" fill="white"/>
</clipPath>
</defs>
</svg>
